<?xml version="1.0" encoding="UTF-8"?><svg id="Laag_1" xmlns="http://www.w3.org/2000/svg" viewBox="0 0 107.52 111.91"><defs><style>.cls-1{fill:#ff3406;}.cls-2{fill:#1d1e1c;}</style></defs><path class="cls-1" d="M76.32,106.43c-2.42-1.9-4.44-1.95-7.26-1.08-9.6,2.95-19.34,3.1-29.08,.5C17.55,99.86,1.2,80.06,.08,57.51-1.15,33.03,12.56,11.71,34.86,3.42c22.26-8.27,46.92-1.23,61.44,17.55,14.26,18.43,15.15,44.38,1.41,63.41-3.98,5.51-4.18,10.55-2.35,16.29,1.1,3.45,2.68,6.74,4.26,10.63-8.85,1.51-16.6,.39-23.3-4.87Zm4.93-44.69c4.33-.11,7.88-3.82,7.76-8.13-.11-4.29-3.92-7.9-8.18-7.77-4.32,.13-7.86,3.88-7.73,8.19,.13,4.36,3.78,7.82,8.15,7.71Zm-62.9-7.91c.02,4.32,3.66,7.92,8.01,7.91,4.39,0,7.9-3.53,7.92-7.94,.02-4.31-3.65-7.99-7.93-7.98-4.24,.01-8.01,3.79-7.99,8.01Zm43.21-.75c-.42-4.37-4.34-7.67-8.59-7.22-4.37,.46-7.47,4.25-7.09,8.7,.37,4.4,4.13,7.53,8.57,7.16,4.32-.36,7.54-4.27,7.11-8.63Z"/><path class="cls-2" d="M73.09,54.03c.13,4.36,3.78,7.82,8.15,7.71,4.33-.11,7.88-3.82,7.76-8.13-.11-4.29-3.92-7.9-8.18-7.77-4.32,.13-7.86,3.88-7.73,8.19Z"/><path class="cls-2" d="M26.34,45.83c-4.24,.01-8.01,3.79-7.99,8.01,.02,4.32,3.66,7.92,8.01,7.91,4.39,0,7.9-3.53,7.92-7.94,.02-4.31-3.65-7.99-7.93-7.98Z"/><path class="cls-2" d="M54.44,61.72c4.32-.36,7.54-4.27,7.11-8.63-.42-4.37-4.34-7.67-8.59-7.22-4.37,.46-7.47,4.25-7.09,8.7,.37,4.4,4.13,7.53,8.57,7.16Z"/></svg>