<?xml version="1.0" encoding="UTF-8"?><svg id="Laag_1" xmlns="http://www.w3.org/2000/svg" viewBox="0 0 45.04 45.04"><defs><style>.cls-1{fill:#0089f9;}.cls-2{fill:#1d1e1c;}</style></defs><path class="cls-1" d="M45.04,22.51c.01,12.4-10.09,22.51-22.51,22.52C10.1,45.06,.01,35,0,22.57-.01,10.09,10.07-.01,22.51,0c12.41,.01,22.51,10.1,22.53,22.51Zm-26.73,2.86v14.11h6.15v-14.11c.93,0,1.79,0,2.64,0,1.88,0,1.89,0,2.18-1.83,.21-1.28,.4-2.57,.61-3.98h-5.44c0-1.52-.02-2.93,0-4.34,.02-.83,.41-1.53,1.15-1.87,.63-.29,1.35-.46,2.05-.54,.78-.09,1.57-.02,2.45-.02,0-1.44-.02-2.8,.01-4.15,.01-.53-.18-.67-.69-.68-1.29-.02-2.57-.08-3.86-.16-3.51-.23-6.07,1.56-6.95,4.95-.23,.9-.3,1.85-.34,2.79-.05,1.33-.01,2.66-.01,4.08h-5.12v5.76h5.16Z"/><path class="cls-2" d="M18.31,25.37h-5.16v-5.76h5.12c0-1.42-.04-2.75,.01-4.08,.04-.93,.1-1.89,.34-2.79,.88-3.39,3.44-5.17,6.95-4.95,1.28,.08,2.57,.14,3.86,.16,.5,0,.7,.14,.69,.68-.03,1.35-.01,2.71-.01,4.15-.88,0-1.68-.07-2.45,.02-.7,.08-1.42,.25-2.05,.54-.74,.34-1.13,1.04-1.15,1.87-.03,1.41,0,2.82,0,4.34h5.44c-.22,1.41-.41,2.69-.61,3.98-.29,1.83-.3,1.83-2.18,1.83-.86,0-1.72,0-2.64,0v14.11h-6.15v-14.11Z"/></svg>