<?xml version="1.0" encoding="UTF-8"?><svg id="Laag_1" xmlns="http://www.w3.org/2000/svg" viewBox="0 0 45.03 45.04"><defs><style>.cls-1{fill:#ff70db;}.cls-2{fill:#1d1e1c;}</style></defs><path class="cls-1" d="M45.03,22.49c0,12.49-10.05,22.55-22.53,22.55C10.1,45.04,0,34.94,0,22.52,0,10.12,10.08,.03,22.51,0c12.41-.03,22.52,10.07,22.52,22.49ZM22.51,8.16c-2.18,0-4.36,0-6.54,0-4.4,.01-7.83,3.44-7.84,7.82,0,4.33,0,8.67,0,13,0,4.42,3.32,7.85,7.75,7.91,4.43,.05,8.87,.06,13.3,0,4.36-.06,7.69-3.42,7.74-7.78,.05-4.41,.05-8.82,0-13.23-.05-4.37-3.5-7.71-7.87-7.72-2.18,0-4.36,0-6.54,0Z"/><path class="cls-2" d="M22.51,8.16c2.18,0,4.36,0,6.54,0,4.37,.01,7.82,3.35,7.87,7.72,.05,4.41,.05,8.82,0,13.23-.05,4.36-3.38,7.72-7.74,7.78-4.43,.06-8.87,.06-13.3,0-4.44-.05-7.75-3.48-7.75-7.91,0-4.33,0-8.67,0-13,0-4.38,3.44-7.8,7.84-7.82,2.18,0,4.36,0,6.54,0Zm-.05,26.21c2.11,0,4.21,0,6.32,0,3.35,0,5.6-2.25,5.6-5.59,0-4.16,0-8.32,0-12.49,0-3.34-2.25-5.59-5.6-5.6-4.19-.01-8.37-.01-12.56,0-3.3,0-5.56,2.26-5.58,5.56-.02,4.19-.02,8.37,0,12.56,.01,3.29,2.28,5.55,5.57,5.56,2.08,0,4.16,0,6.24,0Z"/><path class="cls-1" d="M22.47,34.36c-2.08,0-4.16,0-6.24,0-3.29-.02-5.56-2.27-5.57-5.56-.01-4.19-.02-8.37,0-12.56,.01-3.29,2.28-5.55,5.58-5.56,4.19-.01,8.37-.01,12.56,0,3.35,0,5.59,2.26,5.6,5.6,0,4.16,0,8.32,0,12.49,0,3.35-2.25,5.58-5.6,5.59-2.11,0-4.21,0-6.32,0Zm.05-4c4.32,0,7.87-3.5,7.91-7.81,.04-4.24-3.57-7.86-7.85-7.88-4.31-.02-7.85,3.51-7.87,7.83-.01,4.35,3.47,7.86,7.81,7.86Zm7.73-13.86c.9,0,1.66-.75,1.68-1.64,.02-.91-.78-1.7-1.7-1.69-.92,0-1.65,.72-1.66,1.64-.02,.94,.74,1.7,1.68,1.69Z"/><path class="cls-2" d="M22.52,30.37c-4.34,0-7.83-3.52-7.81-7.86,.01-4.32,3.56-7.85,7.87-7.83,4.28,.02,7.89,3.64,7.85,7.88-.04,4.31-3.59,7.81-7.91,7.81Zm5.15-7.84c0-2.79-2.3-5.1-5.11-5.13-2.82-.03-5.18,2.32-5.18,5.14,0,2.84,2.32,5.17,5.15,5.17,2.83,0,5.14-2.33,5.14-5.17Z"/><path class="cls-2" d="M30.25,16.5c-.94,0-1.7-.75-1.68-1.69,.02-.92,.74-1.63,1.66-1.64,.92,0,1.71,.78,1.7,1.69-.02,.89-.78,1.63-1.68,1.64Z"/><path class="cls-1" d="M27.67,22.53c0,2.85-2.31,5.17-5.14,5.17-2.83,0-5.15-2.32-5.15-5.17,0-2.82,2.36-5.16,5.18-5.14,2.81,.03,5.11,2.34,5.11,5.13Z"/></svg>