<?xml version="1.0" encoding="UTF-8"?><svg id="Laag_1" xmlns="http://www.w3.org/2000/svg" viewBox="0 0 755 689"><defs><style>.cls-1{fill:#f1f3f4;}.cls-2{fill:#fbab0a;}.cls-3{fill:#fdfdfd;}.cls-4{fill:#cce8d4;}.cls-5{fill:#b1d4ed;}.cls-6{fill:#aed2eb;}.cls-7{fill:#0ee00e;}.cls-8{font-size:18.97px;letter-spacing:.02em;}.cls-8,.cls-9{fill:#1d1d1b;font-family:Atrament-Regular, Atrament;}.cls-9{font-size:13.57px;letter-spacing:.03em;}</style></defs><rect class="cls-6" width="755" height="689"/><g><path class="cls-3" d="M21.53,451.36v-95.86c.84-.07,.83-.68,.95-1.33,1.93-10.34,3.88-20.67,5.86-31,1.43-7.44,2.96-14.87,4.38-22.32,2.47-12.99,4.86-25.99,7.33-38.98,1.73-9.12,3.56-18.22,5.3-27.34,2.81-14.73,5.63-29.47,8.35-44.22,.29-1.6,.7-1.79,2.25-1.46,14.3,3.07,28.62,6.04,42.93,9.02,16.36,3.4,32.73,6.77,49.09,10.18,4.03,.84,4.41,.59,4.49-3.59,.01-.55,.01-1.09,0-1.64-.07-3.81,.4-7.59,.56-11.39,.38-8.74,1.27-17.45,1.73-26.19,.27-5.03,.57-10.05,.91-15.08,.64-9.44,.9-18.9,1.52-28.34,.2-2.96-.15-6.07,1.5-8.83,5.3-8.86,10.53-17.77,15.93-26.57,.89-1.45,.62-2.21-.46-3.13-3.37-2.86-6.71-5.75-10.09-8.6-5.68-4.8-11.41-9.55-17.08-14.36-5.67-4.82-11.27-9.72-16.95-14.54-7.69-6.51-15.46-12.92-23.08-19.5-1.11-.95-2.76-1.54-3.13-3.26,9.04,0,18.08,0,27.12,0,1.26,1.15,2.48,2.34,3.78,3.44,8.83,7.48,17.68,14.93,26.5,22.41,7.7,6.53,15.35,13.13,23.04,19.66,8.76,7.44,17.56,14.83,26.34,22.25,8.06,6.82,16.1,13.67,24.18,20.48,3.28,2.76,6.05,5.71,7.96,9.78,8.34,17.79,18.72,34.42,30.05,50.45,8.8,12.45,18.35,24.31,28.8,35.41,12.49,13.28,25.89,25.55,40.76,36.19,12.89,9.22,26.52,17.12,41.05,23.45,10.44,4.55,21.47,7.22,32.46,10.02,3.3,.84,3.18,.81,3.7-2.42,.32-2.02,.17-4.04,.43-6.03,.38-2.94,.31-5.89,.52-8.84,.53-7.35,1.39-14.68,1.26-22.07,.68-.51,.5-1.26,.5-1.94,.02-4.49,.3-8.97,.93-13.41,.23-1.59-.64-1.96-1.91-2.24-10.63-2.37-19.56-7.66-26.9-15.68-5.82-6.37-9.73-13.78-11.82-22.12-.33-1.31-.66-1.6-2-1.3-4.59,1.05-9.22,1.92-13.83,2.91-10.8,2.32-21.59,4.67-32.39,7.01-2.36,.97-3.84-.52-5.38-1.91-3.32-3-6.07-6.51-9.1-9.78-.16-.16-.32-.32-.48-.48h0c0-.69-.52-1.08-.87-1.59-8.96-12.87-14.56-26.72-13.22-42.82,1.05-12.51,6.01-23.31,13.7-32.99,1.25-1.57,1.13-2.35-.44-3.46-14.91-10.6-29.6-21.51-44.06-32.73-8.27-6.61-16.5-13.27-24.85-19.78-1.27-.99-2.15-2.78-4.16-2.7,0-.59-.29-1.04-.73-1.39-4.83-3.95-9.72-7.82-14.48-11.86-2.19-1.86-4.82-3.29-6.31-5.9h28.06c1.14,2.23,3.65,3.01,5.19,4.83,.3,.36,.71,.06,.93-.32,.86-1.54,2.44-2.64,2.77-4.51h21.98c.03,.6-.36,1-.67,1.44-3.15,4.41-6.27,8.84-9.45,13.22-.89,1.23-1.21,1.96,.37,3.09,3.51,2.52,6.74,5.45,10.21,8.03,1.43,1.07,2.59,2.75,4.69,2.72,.01,.99,.73,1.53,1.4,2.04,4.1,3.18,8.18,6.4,12.35,9.48,16.65,12.31,33.34,24.57,50.91,35.57,2.53,1.58,4.78,3.72,7.85,4.34,4.07,3.12,8.52,5.61,13,8.08,1.5,.83,2.99,1.63,4.74,1.8,.05,.52,.35,.81,.8,1.05,7.73,4.02,15.67,7.54,24.18,9.57,1.74,.42,3.58,1.12,5.45,.09,8-4.41,16.67-6.01,25.7-6.08,4.67,.66,9.34,1.32,14,1.99,3.31,2.26,7.03,3.82,10.78,4.9,3.98,1.14,8.29,.84,12.45,1.15,6.94,.51,13.86,1.2,20.79,1.78,4.32,.36,8.64,.65,12.96,1.01,6.85,.58,13.7,1.22,20.56,1.79,4.47,.37,8.95,.63,13.43,1,7.01,.58,14.01,1.22,21.02,1.81,4.24,.36,8.49,.64,12.72,1,6.7,.58,13.39,1.24,20.09,1.79,4.63,.39,9.27,.6,13.89,1,6.39,.55,12.76,1.27,19.15,1.8,4.94,.41,9.89,.57,14.83,.99,8.24,.7,16.46,1.62,24.7,2.27,7.4,.58,14.8,1.08,22.19,1.85,1.17,.12,2.48,.49,3.6-.4,.31,0,.62,.02,.93,.02,1.24,1.63,2.74,.9,4.21,.45l1.87,.04c.73,1.49,1.78,.92,2.81,.42,1.09,.03,2.17,.06,3.26,.1,.27,.92,.74,1.06,1.42,.36,1.42-.07,2.83,0,4.2,.44,.29,.48,.6,.52,.94,.04,5.46,.46,10.91,.92,16.37,1.38v18.24c-2.71-.17-5.42-.23-8.12-.52-7.23-.79-14.48-1.36-21.74-1.83-4.17-.27-8.34-.61-12.5-.98-6.55-.58-13.09-1.24-19.64-1.8-4.63-.39-9.27-.6-13.9-.99-6.63-.56-13.24-1.26-19.87-1.81-4.71-.39-9.43-.58-14.14-.99-8.24-.71-16.47-1.63-24.72-2.27-7.48-.58-14.98-.99-22.44-1.86-.8-.09-1.76-.29-1.92,1.04-.44,3.68-.96,7.36-1.4,11.04-.97,8.06-1.88,16.12-2.88,24.17-.37,2.93-.2,3.25,2.76,3.44,2.94,.19,5.89,.29,8.82,.54,6.7,.57,13.4,1.21,20.1,1.8,4.09,.36,8.18,.65,12.26,1.01,6.55,.58,13.09,1.21,19.64,1.79,4.16,.37,8.34,.64,12.5,1,6.7,.58,13.4,1.2,20.1,1.82,4.09,.38,8.17,.76,12.26,1.04,6.32,.44,12.62,1.19,18.94,1.75,4.4,.39,8.81,.57,13.2,1.01,7.55,.76,15.07,1.72,22.67,1.8v18.24c-.86-.01-1.72,.03-2.57-.05-6.78-.6-13.55-1.22-20.33-1.82-4.01-.35-8.02-.65-12.03-1-6.62-.59-13.24-1.22-19.87-1.8-4.16-.37-8.33-.65-12.5-1.02-6.47-.57-12.93-1.21-19.4-1.78-4.24-.37-8.49-.64-12.73-1.01-6.7-.58-13.4-1.21-20.1-1.8-4.09-.36-8.18-.65-12.26-1.02-6.47-.58-12.93-1.21-19.4-1.78-4.32-.38-8.66-.57-12.95-1.1-1.34-.16-1.69-.11-1.91,1.29-.79,4.89-1.3,9.81-1.89,14.72-.78,6.44-1.74,12.86-2.63,19.28-.12,.88,.21,1.27,1.12,1.35,5.01,.44,10.01,.95,15.02,1.4,5.63,.51,11.26,.93,16.88,1.48,7.15,.7,14.29,1.54,21.45,2.25,5.54,.54,11.1,.91,16.65,1.45,7.31,.72,14.6,1.57,21.91,2.28,5.62,.55,11.26,.91,16.88,1.46,7.31,.71,14.6,1.57,21.91,2.28,5.62,.55,11.26,.91,16.88,1.46,7.31,.71,14.6,1.53,21.91,2.3v17.77c-2.79-.18-5.58-.31-8.36-.57-5.94-.55-11.87-1.19-17.81-1.77-5.32-.52-10.65-.98-15.98-1.51-7.25-.72-14.49-1.51-21.74-2.21-5.63-.55-11.28-.96-16.91-1.52-7.17-.7-14.33-1.53-21.5-2.22-7.25-.7-14.52-1.26-21.77-1.96-8.87-.86-17.72-1.85-26.59-2.72-7.18-.7-14.37-1.23-21.54-1.97-3.31-.34-6.62-.73-9.56-2.64-2.05-1.33-3.28-3.49-5.26-4.86-.71-2.83-2.17-5.54-1.86-8.55,.42-4.23,1-8.44,1.54-12.65,.71-5.59,1.47-11.17,2.17-16.77,.84-6.67,1.6-13.34,2.45-20.01,.87-6.82,1.83-13.62,2.69-20.43,.85-6.74,1.49-13.52,2.53-20.23,.32-2.08-.07-2.33-1.81-1.78-.74,.23-1.48,.48-2.22,.72-6.35,2.06-12.69,4.16-19.05,6.19-13.82,4.41-27.65,8.8-41.48,13.19-1.16,.37-1.84,1.05-2.02,2.27-1.69,11.14-6.85,20.57-14.7,28.45-6.41,6.44-14.19,10.86-23.04,13-3.33,.8-5.1,1.55-5.01,5.62,.13,6-.73,12.02-1.17,18.04-.08,3.34-.42,6.67-.63,9.99-.16,2.55-.23,5.12-.42,7.67-.46,6.26-.87,12.53-1.33,18.79-.09,1.26,.35,1.72,1.68,1.87,3.84,.43,7.66,1.08,11.5,1.6,7.52,1.02,15.04,2.04,22.56,3.03,6.83,.89,13.67,1.76,20.51,2.61,5.76,.71,11.53,1.4,17.3,2.06,6.08,.69,12.17,1.34,18.25,2.01,6.62,.73,13.23,1.49,19.86,2.21,4.93,.54,9.86,1.03,14.79,1.54,7.17,.74,14.33,1.49,21.5,2.2,5.4,.53,10.8,.98,16.2,1.51,5.78,.56,11.55,1.22,17.33,1.76,5.87,.55,11.74,.98,17.61,1.5,6.56,.58,13.11,1.22,19.67,1.79,6.02,.52,12.07,.86,18.08,1.5,7.02,.75,14.05,1.24,21.08,1.78,4.41,.34,8.81,.67,13.22,1.02,6.41,.51,12.8,1.48,19.26,1.32v18.24c-2.86-.13-5.74-.3-8.58-.58-7.4-.71-14.81-1.16-22.21-1.78-4.32-.36-8.64-.73-12.97-1.01-6.87-.45-13.72-1.15-20.57-1.78-4.09-.38-8.17-.76-12.27-1.04-6.48-.44-12.94-1.17-19.41-1.76-4.01-.36-8.02-.65-12.03-1.03-5.93-.56-11.84-1.2-17.77-1.77-3.85-.37-7.71-.63-11.56-1.02-5.46-.56-10.91-1.2-16.36-1.79-5.61-.6-11.23-1.15-16.83-1.8-1.38-.16-1.95,.12-2.02,1.65-.2,4.41-.63,8.81-.99,13.2-.62,7.56-1.19,15.12-1.87,22.67-.22,2.46,.02,4.99-.69,7.38-.54,1.85,.41,2.5,1.89,2.64,4.08,.4,8.18,.68,12.27,1.01,4.09,.33,8.18,.64,12.27,1.01,6.16,.57,12.31,1.21,18.47,1.79,4.01,.37,8.02,.66,12.03,1.04,6.08,.57,12.16,1.2,18.24,1.77,4.01,.37,8.03,.64,12.03,1.02,6,.57,12,1.23,18,1.78,4.24,.39,8.5,.61,12.73,1.01,5.77,.55,11.53,1.26,17.3,1.79,6.01,.55,12.04,.9,18.05,1.46,7.62,.7,15.23,1.53,22.85,2.3v17.77c-2.43,.32-4.78-.4-7.18-.51-4.02-.19-8.03-.62-12.03-.99-6.16-.57-12.31-1.2-18.47-1.77-3.93-.37-7.87-.65-11.8-1.01-6.31-.58-12.62-1.21-18.94-1.79-4.01-.37-8.02-.65-12.03-1.03-6-.57-12-1.21-18-1.77-4.08-.38-8.18-.64-12.27-1.02-6.24-.57-12.47-1.21-18.7-1.79-3.93-.37-7.87-.66-11.8-1.03-6.16-.58-12.31-1.2-18.47-1.78-4.01-.37-8.02-.66-12.03-1.06-6.54-.64-5.89-1.4-6.43,5.23-.39,4.79-.63,9.58-1.01,14.37-.56,7.02-1.23,14.02-1.79,21.04-.37,4.63-.62,9.27-.99,13.9-.58,7.33-1.23,14.65-1.82,21.97-.36,4.4-.64,8.8-1,13.2-.43,5.24-.98,10.48-1.31,15.72-.18,2.97,.06,3.06,2.78,2.16,7.59-2.53,15.19-5.04,22.76-7.61,12.43-4.22,24.83-8.52,37.26-12.73,10.6-3.58,21.24-7.03,31.84-10.61,13.32-4.5,26.61-9.08,39.92-13.6,11.03-3.75,22.06-7.51,33.12-11.17,6.11-2.03,12.13-4.37,18.39-5.93v18.7c-14.57,4.94-29.13,9.88-43.7,14.81-11.78,3.98-23.57,7.93-35.34,11.91-23.85,8.06-47.7,16.13-71.55,24.19-11.19,3.78-22.39,7.54-33.58,11.32-23.93,8.08-47.85,16.18-71.78,24.25-19.22,6.48-38.45,12.93-57.69,19.35-1.52,.51-2.36,1.29-2.47,2.93-.53,8.18-1.36,16.34-2.31,24.48-.26,2.27,.13,2.56,2.42,1.81,7.97-2.61,15.94-5.23,23.92-7.85,22.07-7.25,44.14-14.5,66.21-21.75,11.15-3.66,22.29-7.33,33.44-10.99,22.44-7.37,44.88-14.74,67.32-22.11,21.7-7.13,43.4-14.26,65.1-21.4,14.02-4.62,28.02-9.3,42.06-13.87,5.98-1.94,11.84-4.25,17.96-5.75v18.7c-9.75,3.17-19.51,6.31-29.25,9.52-11.87,3.92-23.71,7.95-35.59,11.85-12.17,4-24.38,7.88-36.56,11.87-20.3,6.65-40.59,13.32-60.88,20.01-12.09,3.99-24.16,8.08-36.25,12.06-12.17,4-24.38,7.88-36.55,11.88-10.04,3.29-20.04,6.71-30.07,10.01-17.12,5.63-34.24,11.24-51.39,16.78-1.8,.58-2.11,1.56-1.81,3.13,.3,1.59,.58,3.19,.85,4.79,1.37,8,2.81,15.98,4.03,24,.31,2.01,.99,1.88,2.5,1.37,12.86-4.38,25.75-8.69,38.61-13.06,11.18-3.8,22.32-7.7,33.5-11.48,18.76-6.34,37.55-12.6,56.32-18.93,11.26-3.8,22.47-7.72,33.73-11.53,18.69-6.32,37.4-12.56,56.09-18.88,11.11-3.76,22.18-7.63,33.28-11.41,18.02-6.13,36.04-12.24,54.09-18.28,1.74-.58,3.42-1.51,5.35-1.44v18.7c-7.5,2.52-15.01,5.02-22.51,7.56-20,6.77-40,13.57-60,20.34-20.15,6.82-40.31,13.62-60.46,20.44-19.86,6.72-39.72,13.47-59.58,20.18-15.6,5.27-31.22,10.46-46.82,15.74-12.65,4.28-25.28,8.66-37.93,12.97-6.91,2.35-13.83,4.66-20.77,6.93-1.24,.4-2.21,.83-1.94,2.36,.93,5.33,1.86,10.65,2.79,15.98h-18.24c-.57-3.34-1.19-6.67-1.7-10.02-.2-1.3-.63-1.64-1.94-1.19-9.89,3.4-19.79,6.74-29.7,10.1-.57,.19-1.27,.26-1.27,1.11h-56.11c.05-1.11,1.06-1.05,1.71-1.27,16.76-5.7,33.52-11.38,50.29-17.05,10.59-3.58,21.17-7.2,31.78-10.72,1.61-.53,1.96-1.36,1.69-2.91-1.55-8.98-3.08-17.96-4.55-26.96-.66-4.08-.59-4.1-4.4-2.83-32.36,10.78-64.71,21.57-97.08,32.3-1.74,.58-2.44,1.34-2.41,3.27,.12,8.72,.05,17.45,.05,26.17h-17.77c0-8.1-.08-16.2,.05-24.29,.03-2.13-.91-2.78-2.7-2.81-2.4-.05-4.79-.23-7.19-.42-8.1-.63-16.24-.87-24.34-1.55-2.55-.21-5.11-.19-7.65-.45-6.55-.68-13.11-1.08-19.68-1.37-1.65-.07-2.13,.5-2.13,2.13,.02,5.05,.71,10.06,.55,15.12-.1,3.32,.27,6.65,.41,9.98,.04,.88,.05,1.73-1.23,1.79-2.08,.1-4.16,.3-6.25,.46-2.88,0-5.77,.02-8.65,.02-.79,0-1.59,.06-1.67-1.1-.1-1.55-.36-3.09-.4-4.63-.2-7.08-.42-14.15-.47-21.23-.01-1.93-.82-2.25-2.4-2.01-2.07,.32-4.14,.62-6.21,.9-3.84,.51-7.69,.96-11.52,1.53-.93,.14-1.88,.31-1.78,1.87,.52,8.68,.89,17.37,1.31,26.05h-17.77c-.03-2.64-.59-5.22-.5-7.89,.16-4.73-.74-9.45-.46-14.2,.03-.52-.23-1.05-.33-1.58-.19-.99-.78-1.17-1.71-1.01-7.39,1.25-14.79,2.45-22.17,3.7-14.47,2.45-28.94,4.94-43.41,7.38-14.86,2.5-29.72,4.95-44.58,7.45-1.43,.24-2.33-.1-2.92-1.54-3.22-7.74-6.41-15.49-9.81-23.15-1.07-2.4-1.45-5.2-3.63-7.04v-45.82c.53,.04,.77,.33,.98,.83,4.03,9.5,8.09,18.99,12.14,28.49,3.71,8.71,7.46,17.41,11.08,26.16,.81,1.95,2.06,2.27,3.87,1.97,13.86-2.33,27.75-4.56,41.59-7,3.72-.66,3.85,.07,2.51-3.9-.4-1.17-.66-2.39-1.05-3.57-5.1-15.64-10.22-31.27-15.32-46.91-2.22-6.78-4.42-13.57-6.63-20.36-1.99-6.13-4.1-12.22-5.91-18.41-.71-2.41-1.83-2.81-4.02-2.12-9.77,3.06-19.56,6.08-29.36,9.01-3.25,.97-6.41,2.36-9.86,2.62v-18.7c.88,.09,1.68-.19,2.5-.44,8.46-2.57,16.93-5.12,25.39-7.69,7.27-2.21,14.54-4.44,21.81-6.67,.91-.28,1.7-.46,1.62-1.82-.64-10.28-1.29-20.57-1.72-30.86-.24-5.73-.7-11.45-.89-17.18-.35-10.62-1.2-21.22-1.42-31.84-.05-2.26-.85-2.88-2.89-3.16-5.97-.8-11.91-1.8-17.87-2.7-6.34-.96-12.68-1.91-19.03-2.84-1.34-.2-2.19-.05-2.49,1.77-1.22,7.24-2.7,14.43-4.06,21.65-.12,.65-.11,1.26-.95,1.33ZM210.01,114.22c-1.22-1.86-3.1-3.03-4.75-4.44-4.65-4-9.36-7.93-14-11.94-1.36-1.17-2.16-.95-3.03,.57-2.59,4.52-5.17,9.05-7.96,13.45-3.27,5.18-5.7,10.31-5.59,16.86,.14,8.73-1.1,17.48-1.59,26.22-.43,7.67-.93,15.33-1.36,23-.61,10.92-1.25,21.85-1.92,32.77-.46,7.51-.93,15.02-1.36,22.53-.62,10.85-1.21,21.69-1.92,32.53-.45,6.89-.53,13.82-1.09,20.7-.23,2.87-.24,5.74-.44,8.6-.44,6.19-.85,12.38-1.31,18.56-.11,1.49,.5,1.99,1.99,2.16,5.16,.56,10.33,1.12,15.43,2.04,2.25,.41,2.62-.45,2.63-2.22,.06-8.86,.57-17.7,.88-26.56,.31-8.62,.62-17.24,.93-25.85,.32-8.77,.61-17.55,.93-26.32,.32-8.69,.56-17.39,.95-26.09,.48-10.48,.71-20.97,.98-31.46,.04-1.43,.47-2.09,1.81-2.78,3.16-1.62,6.73-2.43,9.51-4.8,.96-.27,1.99-.41,2.89-.82,11.57-5.28,23.1-10.66,34.7-15.86,2.2-.99,2.45-1.88,1.22-3.85-4.51-7.25-8.38-14.86-12.19-22.5-.83-1.66-2.12-2.86-3.46-4.03-1.69-1.47-3.37-2.97-5.16-4.31-2.65-1.98-4.74-4.65-7.74-6.18Zm210.34,346.1c.45,.83-.8,2.45,1.18,2.7,2.68,.34,5.37,.67,8.06,.95,4.92,.52,9.85,.98,14.77,1.53,6.29,.7,12.58,1.52,18.87,2.21,5.15,.56,10.32,.92,15.47,1.49,7.68,.85,15.34,1.86,23.02,2.71,6.45,.71,12.93,1.24,19.39,1.94,3.29,.36,3.43,.23,3.59-3.07,.24-5.03,.58-10.05,.98-15.07,.55-6.94,1.28-13.86,1.77-20.8,.33-4.71,.81-9.41,1.06-14.13,.39-7.41,1.17-14.8,1.77-22.2,.35-4.32,.64-8.65,.99-12.97,.59-7.25,1.22-14.49,1.81-21.73,.36-4.48,.64-8.96,1.01-13.43,.57-6.86,1.2-13.71,1.79-20.57,.46-5.39,.85-10.79,1.39-16.18,.16-1.62-.47-2.36-1.91-2.54-1.15-.15-2.34-.02-3.5-.15-7.52-.89-15.03-1.85-22.55-2.73-5.91-.69-11.84-1.24-17.75-1.96-7.05-.85-14.1-1.8-21.14-2.74-5.21-.69-10.41-1.42-15.61-2.16-5.74-.82-11.47-1.66-17.2-2.49-1.33-.19-2.25,.4-2.21,1.72,.06,2.19-.37,4.32-.54,6.48-.46,5.63-.94,11.26-1.46,16.88-.57,6.16-1.22,12.31-1.8,18.46-.37,3.85-.65,7.71-1.02,11.56-.57,5.92-1.21,11.84-1.78,17.76-.38,3.93-.66,7.86-1.04,11.79-.57,5.92-1.2,11.84-1.77,17.76-.37,3.85-.65,7.71-1.01,11.56-.58,6.08-1.21,12.15-1.79,18.23-.36,3.77-.65,7.55-1.03,11.33-.58,5.92-1.21,11.84-1.83,17.85Zm-108.6-217.71c.24-.7-.44-1.12-.93-1.57-1.87-1.75-3.82-3.42-5.65-5.21-4.7-4.63-9.33-9.34-14.02-13.99-5.96-5.91-11.45-12.26-16.75-18.74-8.4-10.26-16.37-20.86-23.56-32.02-1.02-1.59-1.88-1.78-3.59-.97-6.46,3.06-13.02,5.91-19.51,8.89-6.71,3.08-13.4,6.22-20.1,9.33-1.13,.52-1.91,1.21-1.9,2.63,.06,8.78-.56,17.53-.85,26.3-.29,8.53-.61,17.06-.93,25.6-.33,8.92-.63,17.84-.94,26.76-.3,8.53-.71,17.07-.9,25.6-.17,7.69-.78,15.38-.62,23.08,.04,1.97,.8,2.52,2.62,2.65,2.93,.2,5.84,.61,8.75,1.01,6.43,.87,12.85,1.79,19.28,2.69,6.43,.9,12.85,1.8,19.28,2.68,4.98,.68,9.96,1.33,14.94,1.99,5.36,.71,10.73,1.39,16.09,2.12,6.05,.82,12.09,1.69,18.13,2.53,.93,.13,1.41-.21,1.52-1.24,.24-2.46,.65-4.9,.9-7.36,.52-5.16,.92-10.32,1.48-15.48,.87-7.99,1.87-15.96,2.72-23.96,.71-6.61,1.23-13.24,1.93-19.86,.81-7.76,1.72-15.51,2.61-23.45ZM143.58,504.12c-.41-7.19-1.03-15.77-1.35-24.36-.26-6.9-.63-13.79-.91-20.68-.43-10.54-.89-21.07-1.45-31.6-.53-10.02,.47-20.02,1-30.02,.15-2.78,.22-5.57,.4-8.36,.59-8.96,1.28-17.91,1.82-26.87,.41-6.81,.46-13.65,1.05-20.44,.25-2.87-.12-5.81,.53-8.57,.54-2.31-.4-2.67-2.16-2.97-10.89-1.85-21.8-3.61-32.65-5.72-2.54-.49-2.84,.48-3.22,2.35-2.52,12.43-5.05,24.86-7.64,37.28-3.96,19-7.97,37.99-11.95,56.99-.38,1.81-1.18,3.75-.86,5.46,.72,3.86,.42,7.75,.66,11.59,.6,9.51,.99,19.04,1.48,28.56,.3,5.88,.58,11.76,.94,17.64,.49,8.05,.7,16.12,.96,24.18,.04,1.26,.32,2.45,.46,3.68,.11,1.03,.6,1.37,1.52,1.28,1.38-.13,2.76-.42,4.15-.44,4.89-.06,9.74-.58,14.61-.9,9.12-.6,18.26-1.04,27.4-1.43,5.21-.22,5.21-.12,5.21-6.65Zm256.71-43.34c1.66,.34,2.35-.59,2.41-2.88,.11-4.09,.59-8.18,.99-12.26,.55-5.69,1.2-11.37,1.74-17.06,.54-5.62,.97-11.25,1.49-16.87,.57-6.23,1.18-12.46,1.8-18.69,.41-4.07,.91-8.14,1.3-12.21,.39-4.08,.71-8.17,1.02-12.26,.07-.86,.09-1.66-1.19-1.82-5.75-.73-11.48-1.56-17.23-2.32-6.36-.84-12.73-1.6-19.08-2.46-7.58-1.02-15.15-2.1-22.72-3.16-5.28-.74-10.55-1.48-15.83-2.21-4.82-.67-9.65-1.32-14.47-1.99-1.61-.22-2.76,.19-2.94,2.02-.34,3.46-.66,6.93-.99,10.39-.49,5.08-.97,10.16-1.5,15.24-.56,5.38-1.2,10.75-1.77,16.13-.53,5.08-.99,10.16-1.52,15.23-.56,5.38-1.16,10.75-1.76,16.13-.42,3.76-.88,7.52-1.3,11.28-.32,2.92-.58,5.85-.91,8.76-.1,.85,.29,1.08,1.04,1.14,1.62,.13,3.23,.3,4.85,.47,4.92,.51,9.84,1,14.76,1.55,4.91,.55,9.82,1.18,14.73,1.71,5,.54,10,.97,15,1.5,5.3,.56,10.59,1.18,15.89,1.78,3.68,.42,7.36,.87,11.05,1.27,4.84,.53,9.69,1.02,15.13,1.6ZM150.79,229.77c.62-2.32-.22-2.96-1.53-3.23-4.02-.82-8.04-1.61-12.06-2.44-12.35-2.55-24.7-5.11-37.04-7.69-9.84-2.06-19.68-4.17-29.52-6.25-1.68-.35-2.64,.15-2.85,2.04-.23,2.07-.69,4.12-1.09,6.16-1.96,10.1-3.95,20.19-5.88,30.29-2.91,15.19-5.75,30.39-8.69,45.57-.32,1.67,.13,2.14,1.75,2.42,14.85,2.56,29.68,5.24,44.53,7.84,15.15,2.65,30.31,5.25,45.46,7.89,1.32,.23,1.81-.02,2.11-1.54,.73-3.61,.47-7.27,.73-10.89,.58-7.95,1-15.93,1.47-23.89,.47-7.97,.85-15.94,1.42-23.9,.55-7.73,.82-15.47,1.17-22.39Zm53.58,317.32c0,1.17,.08,2.34-.02,3.5-.13,1.49,.25,2.23,1.95,2.38,3.38,.28,6.74,.86,10.11,1.26,5.84,.68,11.68,1.3,17.51,1.99,5.98,.71,11.96,1.49,17.94,2.22,4.83,.59,9.66,1.18,14.5,1.73,3.38,.39,6.76,.73,10.15,1.07,.9,.09,1.63,0,1.75-1.27,.57-6.08,1.23-12.15,1.85-18.23,.5-4.85,.95-9.7,1.48-14.54,.56-5.15,1.24-10.28,1.78-15.43,.55-5.15,.97-10.32,1.5-15.47,.57-5.53,1.19-11.06,1.79-16.59,.39-3.53,.59-7.1,1.25-10.59,.39-2.05-.17-2.9-2.08-3.16-4.82-.66-9.64-1.34-14.47-1.97-6.44-.83-12.89-1.57-19.32-2.45-8.5-1.16-16.97-2.46-25.47-3.62-7.58-1.03-15.19-1.84-22.75-3.01-1.94-.3-2.31,.06-2.29,1.83,.08,4.97,.01,9.94,.45,14.9,.36,4.09,.23,8.22,.38,12.33,.37,10.32,.48,20.65,1.05,30.97,.24,4.34,.05,8.68,.36,13.04,.45,6.34-.02,12.74,.59,19.1Zm91.78,13.86c-.47,2.88,1.16,3.01,2.65,3.07,2.41,.1,4.76,.51,7.13,.88,3.8,.59,7.55,.6,11.08-1.28,.68-.36,1.44-.59,2.17-.84,11.7-3.95,23.4-7.91,35.11-11.84,12.3-4.12,24.57-8.3,36.93-12.24,3.02-.96,4.19-2.61,4.44-5.63,.82-9.86,1.86-19.71,2.76-29.57,.69-7.63,1.23-15.27,1.98-22.9,.12-1.22,.05-1.72-1.19-1.8-.69-.05-1.36-.26-2.05-.33-4.92-.52-9.85-1.01-14.77-1.54-5.22-.56-10.44-1.17-15.67-1.74-4.92-.53-9.85-1.01-14.77-1.55-4.99-.55-9.98-1.16-14.97-1.72-4.84-.54-9.69-1.02-14.53-1.56-4.91-.55-9.82-1.14-14.74-1.71-1.19-.14-1.82,.18-1.91,1.6-.21,3.24-.64,6.46-.99,9.69-.59,5.38-1.2,10.75-1.77,16.13-.53,5.08-.98,10.16-1.53,15.24-.55,5.07-1.2,10.13-1.74,15.2-.54,5.15-.95,10.32-1.5,15.48-.69,6.53-1.46,13.05-2.13,18.94Zm-112.82-164.49h-.04c0-9.43,0-18.85,0-28.28,0-9.97-.03-19.95,.03-29.92,0-1.64-.45-2.26-2.21-2.45-5.15-.57-10.29-1.36-15.41-2.15-2.7-.42-3.32-.05-3.36,2.57-.07,5.13-.57,10.23-.9,15.34-.61,9.53-.91,19.08-1.55,28.61-.2,3.03-.27,6.05-.46,9.07-.55,8.82-1.33,17.64-1.74,26.47-.35,7.61,.47,15.21,.77,22.82,.42,10.63,.93,21.26,1.43,31.89,.3,6.36,.65,12.72,.91,19.08,.44,10.79,.89,21.57,1.45,32.36,.33,6.36,.63,12.72,.89,19.08,.42,10.48,.96,20.95,1.43,31.42,.29,6.52,.56,13.03,.93,19.55,.5,8.84,.73,17.7,1.02,26.56,.11,3.34,.33,3.54,3.64,3.04,5.21-.79,10.41-1.7,15.64-2.16,2.37-.21,2.84-1.08,2.73-3.16-.27-4.73-.21-9.48-.39-14.22-.39-10.1-.66-20.2-.99-30.3-.31-9.55-.61-19.11-.93-28.66-.33-10.02-.62-20.04-.94-30.07-.31-9.63-.54-19.27-.95-28.9-.48-11.18-.86-22.38-.95-33.57-.15-18-.04-35.99-.04-53.99Zm145.6-140.87c-.33,.08-.58,.25-.63,.72-.15,1.46-.34,2.92-.48,4.38-.51,5.15-.99,10.31-1.53,15.47-.55,5.3-1.17,10.6-1.74,15.9-.39,3.61-.71,7.23-1.09,10.85-.55,5.15-1.15,10.29-1.71,15.43-.58,5.3-1.09,10.61-1.76,15.89-.23,1.81,.16,2.72,2.12,2.59,.54-.04,1.09,.03,1.63,.1,7.57,1.05,15.15,2.11,22.72,3.16,5.28,.74,10.55,1.5,15.83,2.21,6.2,.84,12.41,1.65,18.61,2.46,5.36,.7,10.73,1.37,16.09,2.1,4.82,.66,9.63,1.39,14.45,2.08,.92,.13,1.33-.21,1.56-1.22,.36-1.62,.3-3.24,.46-4.85,.72-7.31,1.58-14.6,2.28-21.91,.71-7.47,1.05-14.98,2.03-22.41,.33-2.52-.6-2.93-2.43-3.28-16.19-3.05-31.55-8.65-46.4-15.6-13.46-6.3-26.14-14-38.11-22.85-.56-.41-1.16-.77-1.87-1.23Zm-180.2,362.09c-.77-4.27-.45-9.87-.82-15.44-.47-7.11-.67-14.25-.99-21.38-.29-6.51-.74-13.01-.91-19.52-.24-8.62-1.02-17.21-.98-25.83,0-1.97-.51-3.84-.52-5.78,0-1.1-.71-1.24-1.57-1.21-4.66,.17-9.32,.23-13.97,.51-8.96,.54-17.92,1.3-26.88,1.78-3.72,.2-7.45,.38-11.15,.67-2.75,.21-5.58-.07-8.31,.75-1.39,.42-1.68,.98-1.22,2.31,.85,2.42,1.53,4.89,2.33,7.32,5.75,17.56,11.52,35.12,17.25,52.68,3.71,11.37,7.39,22.74,11.05,34.12,.37,1.15,.76,1.95,2.25,1.69,9.67-1.7,19.34-3.34,29.01-5q5.42-.93,5.42-7.68Zm52.37-258.19c0,4.91-.04,9.82,.02,14.72,.03,1.92-.8,4.25,.4,5.66,1.03,1.21,3.31,.92,5.09,.96,.15,0,.3,.1,.45,.12,5.67,.72,11.34,1.44,17.02,2.15,5.52,.69,11.05,1.35,16.57,2.04,5.67,.71,11.34,1.47,17.01,2.17,5.68,.7,11.37,1.3,17.04,2.02,6.51,.83,13.01,1.76,19.52,2.64,1.03,.14,1.8-.03,1.84-1.41,.05-1.7,.33-3.39,.51-5.08,.6-5.45,1.21-10.9,1.79-16.36,.55-5.15,1.02-10.31,1.68-15.44,.17-1.3,.1-1.79-1.35-1.94-3.92-.4-7.82-.96-11.73-1.5-7.5-1.03-14.99-2.12-22.49-3.13-6.36-.86-12.73-1.61-19.08-2.47-7.58-1.02-15.15-2.1-22.72-3.15-6.35-.89-12.7-1.75-19.04-2.69-1.71-.26-2.6-.08-2.56,2.01,.11,6.23,.04,12.46,.04,18.7Zm-132.47,54.99c1.2,.2,1.85-.62,2.05-2.25,.23-1.91,.72-3.8,1.11-5.69,2.89-13.86,5.79-27.72,8.68-41.58,2.73-13.1,5.39-26.22,8.18-39.31,.95-4.45,1.08-4.45-3.47-5.27-11.79-2.13-23.58-4.23-35.37-6.35-.9-.16-1.44-.08-1.63,1.02-.37,2.21-.93,4.39-1.34,6.6-3.03,16.19-6.02,32.39-9.08,48.57-2.24,11.85-4.47,23.71-6.94,35.52-.53,2.55,.22,3.32,2.46,3.48,.23,.02,.47,.03,.7,.07,6.8,1.02,13.6,2.05,20.4,3.08,4.59,.69,9.17,1.37,14.26,2.13ZM432.89,135.73c-18.66-.71-33.65,15.28-33.98,32.44-.39,19.85,14.98,34.39,32.86,34.88,19.62,.53,33.64-15.63,34.52-31.55,1.15-20.76-15.73-36.27-33.4-35.76ZM203.02,398.53c-1.64-.34-1.96,.58-1.95,2.12,.05,11.14,.08,22.29-.03,33.43-.02,2.18,1,2.65,2.76,2.78,1.7,.13,3.39,.29,5.08,.52,9.79,1.36,19.58,2.8,29.38,4.13,8.58,1.17,17.17,2.21,25.75,3.34,8.04,1.06,16.09,2.07,24.11,3.31,1.72,.26,2.09-.43,2.22-1.66,.68-6.3,1.29-12.62,1.94-18.92,.55-5.38,1.08-10.77,1.73-16.14,.15-1.26-.15-1.63-1.39-1.74-3-.27-5.99-.68-8.98-1.05-5.75-.72-11.49-1.47-17.24-2.19-5.45-.68-10.9-1.32-16.34-1.99-5.83-.73-11.65-1.47-17.47-2.22-5.59-.72-11.18-1.48-16.78-2.18-4.22-.53-8.44-1.02-12.79-1.54Zm3.26,209.23c0,3.02-.18,6.05,.39,9.06,.17,.88,.3,1.4,1.34,1.48,8.26,.59,16.51,1.28,24.77,1.84,5.87,.4,11.78,.45,17.63,1.05,2.63,.27,5.26,.2,7.88,.48,3.92,.43,7.85,.85,11.81,.84,1.03,0,1.52-.28,1.64-1.42,.56-5.46,1.22-10.9,1.83-16.35,.43-3.84,.88-7.67,1.26-11.52,.4-4,.74-8.01,1.07-12.02,.09-1.06-.01-2.21-1.45-2.15-1.51,.07-2.92-.38-4.38-.53-6-.61-11.99-1.23-17.98-1.94-7.13-.85-14.25-1.83-21.37-2.7-7.74-.95-15.49-1.83-23.24-2.78-1.59-.2-2.29,.23-2.2,1.97,.25,4.65,.16,9.31,.35,13.97,.28,6.9,.45,13.82,.65,20.73Zm83.74,11.4c.94-.27,1.61-.42,2.25-.64,17.32-5.77,34.63-11.54,51.95-17.32,14.74-4.91,29.47-9.84,44.22-14.71,1.31-.43,2.06-.94,2.18-2.48,.31-4.23,.84-8.45,1.25-12.68,.39-4.08,.59-8.18,1.18-12.23,.28-1.91,.04-2.27-1.78-1.65-7.27,2.48-14.58,4.86-21.86,7.32-18.24,6.16-36.48,12.33-54.71,18.53-.99,.34-1.97,.47-2.98,.34-5.21-.7-10.42-1.29-15.63-1.93-2.25-.27-2.26,.86-2.39,2.25-.21,2.31-.29,4.64-.54,6.94-1.01,9.34-2.07,18.68-3.14,28.25Zm236.22-126.6c-4.64-.5-9.13-.98-13.62-1.46-4.77-.51-9.54-1-14.3-1.53-4.91-.55-9.82-1.19-14.73-1.73-5-.54-10.01-.96-15.01-1.5-5.15-.55-10.28-1.21-15.43-1.78-4.84-.53-9.7-.96-14.54-1.5-6.22-.7-12.42-1.48-18.64-2.21-.78-.09-1.21,.15-1.51,1.02-.58,1.68-.32,3.4-.49,5.09-.62,5.92-1.22,11.84-1.78,17.76-.39,4.08-.68,8.17-1.08,12.25-.39,4-.83,7.99-1.27,11.99-.17,1.54,.35,1.91,1.83,1.39,3.66-1.29,7.36-2.46,11.03-3.72,12.57-4.28,25.12-8.62,37.7-12.87,19.8-6.68,39.62-13.29,59.42-19.97,.77-.26,1.71-.26,2.41-1.25ZM323.13,138.98c-.41,4.41,1.03,9.22,2.72,14.01,2.18,6.16,5.79,11.46,9.82,16.51,.73,.91,1.47,2.03,3.06,1.68,13.59-2.96,27.19-5.91,40.8-8.8,1.57-.33,2.18-1.23,2.4-2.64,1.09-7.12,3.93-13.53,7.99-19.41,.99-1.44,.64-1.79-.84-2.36-9.71-3.77-19.08-8.26-28.13-13.44-7.41-4.24-14.62-8.79-21.87-13.29-3.73-2.32-3.86-2.23-6.52,1.31-5.7,7.61-9.69,15.87-9.43,26.43Zm154.88,5.14c1.8,4.1,3.53,7.74,4.49,11.67,.37,1.5,1.16,1.49,2.43,1.07,7.74-2.53,15.51-4.99,23.26-7.48,1.84-.59,3.67-1.21,5.51-1.81-.03-.16-.06-.33-.09-.49-11.74-.98-23.48-1.96-35.59-2.97Z"/><path class="cls-1" d="M103.83,23.04c.36,1.72,2.02,2.3,3.13,3.26,7.62,6.58,15.4,12.99,23.08,19.5,5.68,4.81,11.28,9.72,16.95,14.54,5.67,4.82,11.39,9.57,17.08,14.36,3.38,2.85,6.72,5.74,10.09,8.6,1.09,.92,1.35,1.69,.46,3.13-5.39,8.8-10.62,17.71-15.93,26.57-1.65,2.75-1.3,5.87-1.5,8.83-.63,9.44-.89,18.9-1.52,28.34-.34,5.03-.65,10.05-.91,15.08-.47,8.73-1.36,17.45-1.73,26.19-.16,3.8-.63,7.58-.56,11.39,0,.55,.01,1.09,0,1.64-.08,4.18-.46,4.43-4.49,3.59-16.36-3.41-32.73-6.78-49.09-10.18-14.32-2.98-28.64-5.95-42.93-9.02-1.54-.33-1.95-.14-2.25,1.46-2.72,14.75-5.53,29.49-8.35,44.22-1.74,9.12-3.57,18.22-5.3,27.34-2.47,12.99-4.86,25.99-7.33,38.98-1.42,7.45-2.95,14.87-4.38,22.32-1.98,10.33-3.93,20.66-5.86,31-.12,.65-.11,1.26-.95,1.33V23.04c27.43,0,54.87,0,82.3,0Z"/><path class="cls-5" d="M319.87,178.76c3.03,3.26,5.78,6.78,9.1,9.78,1.54,1.39,3.02,2.88,5.38,1.91,4.4,4.15,8.79,8.31,13.19,12.46,6.48,6.1,13.67,11.18,21.61,15.23,10.82,5.52,22.1,9.87,33.69,13.44,6.29,1.94,12.62,3.77,18.93,5.65,.12,7.39-.74,14.72-1.26,22.07-.21,2.94-.13,5.89-.52,8.84-.26,1.99-.11,4.01-.43,6.03-.52,3.23-.4,3.26-3.7,2.42-10.98-2.8-22.02-5.48-32.46-10.02-14.53-6.33-28.16-14.23-41.05-23.45-14.86-10.64-28.27-22.91-40.76-36.19-10.44-11.1-20-22.96-28.8-35.41-11.33-16.03-21.71-32.65-30.05-50.45-1.91-4.07-4.68-7.02-7.96-9.78-8.08-6.81-16.11-13.66-24.18-20.48-8.78-7.42-17.58-14.81-26.34-22.25-7.7-6.53-15.35-13.13-23.04-19.66-8.82-7.49-17.68-14.93-26.5-22.41-1.3-1.1-2.52-2.29-3.78-3.44,19.17,0,38.34,0,57.52,0,1.15,1.03,2.26,2.1,3.45,3.09,6.98,5.8,13.99,11.57,20.97,17.37,5.73,4.76,11.38,9.61,17.2,14.26,1.15,.92,3.26,1.7,4.35,.25,3.86-5.15,7.41-10.53,11.09-15.82,2.01-.08,2.88,1.71,4.16,2.7,8.35,6.51,16.58,13.17,24.85,19.78,.16,1.15-.68,1.87-1.19,2.7-5.89,9.49-11.78,18.98-17.74,28.43-.73,1.16-.72,1.94-.03,3.13,6.27,10.81,13.06,21.27,20.23,31.51,10.4,14.84,21.7,28.9,35,41.26,2.63,2.44,5.11,5.21,8.6,6.58,0,0,0,0,0,0,.16,.16,.32,.32,.48,.48Z"/><path class="cls-1" d="M727.61,425.17c-6.27,1.56-12.28,3.9-18.39,5.93-11.06,3.67-22.09,7.42-33.12,11.17-13.31,4.52-26.6,9.1-39.92,13.6-10.6,3.58-21.24,7.03-31.84,10.61-12.43,4.2-24.84,8.5-37.26,12.73-7.57,2.57-15.17,5.08-22.76,7.61-2.72,.91-2.96,.82-2.78-2.16,.33-5.25,.88-10.48,1.31-15.72,.36-4.4,.64-8.8,1-13.2,.59-7.33,1.24-14.65,1.82-21.97,.37-4.63,.62-9.27,.99-13.9,.57-7.02,1.23-14.02,1.79-21.04,.38-4.79,.63-9.58,1.01-14.37,.54-6.63-.11-5.87,6.43-5.23,4.01,.39,8.02,.68,12.03,1.06,6.16,.58,12.31,1.2,18.47,1.78,3.93,.37,7.87,.66,11.8,1.03,6.24,.58,12.47,1.22,18.7,1.79,4.09,.37,8.18,.64,12.27,1.02,6,.56,12,1.2,18,1.77,4.01,.38,8.02,.66,12.03,1.03,6.31,.58,12.62,1.21,18.94,1.79,3.93,.36,7.87,.65,11.8,1.01,6.16,.57,12.31,1.2,18.47,1.77,4.01,.37,8.02,.8,12.03,.99,2.4,.11,4.76,.83,7.18,.51v30.39Z"/><path class="cls-5" d="M692.53,143.26c-.31,0-.62-.02-.93-.02-.19-.13-.37-.36-.57-.38-5.4-.51-10.8-1.01-16.2-1.5-5.48-.5-10.96-.98-16.44-1.5-6.01-.57-12.02-1.2-18.03-1.78-5.4-.52-10.8-.99-16.2-1.52-5.62-.56-11.24-1.19-16.87-1.74-5.55-.54-11.11-.98-16.67-1.51-6.01-.57-12.02-1.2-18.03-1.78-5.4-.52-10.8-.98-16.2-1.51-5.7-.56-11.39-1.2-17.1-1.75-5.48-.53-10.96-.96-16.44-1.5-7.16-.71-14.32-1.53-21.48-2.23-7.25-.7-14.51-1.25-21.76-1.95-10.4-1-20.79-2.07-31.19-3.11-4.67-.66-9.34-1.32-14-1.99,.31-1.27,.66-2.54,.93-3.82,2.31-10.83,4.65-21.65,6.85-32.5,.35-1.75,1.14-2.17,2.69-2.01,5.24,.52,10.49,.99,15.73,1.5,5.93,.58,11.86,1.2,17.79,1.77,5.47,.53,10.95,1,16.43,1.53,5.7,.56,11.39,1.18,17.09,1.73,5.47,.53,10.96,.98,16.43,1.51,5.85,.56,11.7,1.2,17.56,1.77,5.4,.53,10.8,.98,16.19,1.51,5.7,.56,11.39,1.2,17.09,1.75,5.47,.53,10.96,.97,16.43,1.49,6.09,.58,12.17,1.21,18.26,1.79,5.32,.51,10.64,.98,15.96,1.5,5.85,.57,11.7,1.2,17.56,1.77,5.4,.53,10.8,.99,16.19,1.52,5.7,.56,11.39,1.2,17.09,1.75,5.63,.54,11.27,.97,16.9,1.51,5.93,.56,11.86,1.17,17.79,1.79,4.08,.43,8.15,.93,12.22,1.39v39.75c-5.46-.46-10.91-.92-16.37-1.38-.29-.45-.61-.47-.94-.04-1.37-.43-2.78-.5-4.2-.44-.37-.53-.89-.47-1.42-.36-1.09-.03-2.17-.06-3.26-.1-.84-.81-1.86-.38-2.81-.42-.62-.01-1.24-.03-1.87-.04-1.32-.9-2.8-.34-4.21-.45Z"/><path class="cls-1" d="M420.4,667.39c-.93-5.33-1.86-10.65-2.79-15.98-.27-1.53,.7-1.96,1.94-2.36,6.94-2.27,13.86-4.58,20.77-6.93,12.65-4.3,25.27-8.68,37.93-12.97,15.59-5.28,31.22-10.48,46.82-15.74,19.87-6.71,39.72-13.46,59.58-20.18,20.15-6.82,40.31-13.62,60.46-20.44,20-6.77,40-13.57,60-20.34,7.5-2.54,15-5.04,22.51-7.56v41.62c-.85,.02-1.68,.02-2.53,.29-17.61,5.57-35.23,11.11-52.84,16.66-11.47,3.62-22.94,7.24-34.41,10.87-21.31,6.74-42.61,13.5-63.92,20.24-11.25,3.55-22.51,7.06-33.76,10.61-21.98,6.94-43.95,13.9-65.92,20.89-.72,.23-1.82,.14-1.94,1.34h-51.9Z"/><path class="cls-1" d="M727.61,526.17c-1.93-.07-3.61,.86-5.35,1.44-18.05,6.04-36.07,12.15-54.09,18.28-11.1,3.78-22.17,7.65-33.28,11.41-18.69,6.32-37.4,12.56-56.09,18.88-11.26,3.81-22.47,7.73-33.73,11.53-18.76,6.34-37.56,12.59-56.32,18.93-11.18,3.78-22.33,7.68-33.5,11.48-12.86,4.37-25.75,8.67-38.61,13.06-1.51,.51-2.19,.65-2.5-1.37-1.22-8.02-2.66-16.01-4.03-24-.27-1.6-.56-3.2-.85-4.79-.29-1.57,.02-2.55,1.81-3.13,17.15-5.53,34.27-11.15,51.39-16.78,10.04-3.3,20.03-6.72,30.07-10.01,12.17-3.99,24.38-7.88,36.55-11.88,12.1-3.98,24.16-8.07,36.25-12.06,20.29-6.69,40.58-13.36,60.88-20.01,12.18-3.99,24.39-7.87,36.56-11.87,11.88-3.91,23.71-7.93,35.59-11.85,9.74-3.22,19.5-6.35,29.25-9.52v32.26Z"/><path class="cls-5" d="M540.59,255.82c1.98,1.37,3.21,3.52,5.26,4.86,2.93,1.9,6.25,2.3,9.56,2.64,7.17,.74,14.36,1.27,21.54,1.97,8.87,.86,17.72,1.85,26.59,2.72,7.25,.71,14.52,1.26,21.77,1.96,7.17,.69,14.33,1.51,21.5,2.22,5.63,.55,11.28,.97,16.91,1.52,7.25,.7,14.49,1.49,21.74,2.21,5.32,.53,10.65,.99,15.98,1.51,5.94,.58,11.87,1.21,17.81,1.77,2.78,.26,5.57,.38,8.36,.57v30.86c-6.46,.16-12.84-.81-19.26-1.32-4.41-.35-8.81-.68-13.22-1.02-7.03-.54-14.06-1.02-21.08-1.78-6.01-.65-12.05-.98-18.08-1.5-6.56-.57-13.11-1.21-19.67-1.79-5.87-.52-11.74-.95-17.61-1.5-5.78-.54-11.55-1.19-17.33-1.76-5.4-.53-10.8-.98-16.2-1.51-7.17-.71-14.33-1.46-21.5-2.2-4.93-.51-9.87-1-14.79-1.54-6.62-.72-13.24-1.48-19.86-2.21-6.08-.67-12.17-1.31-18.25-2.01-5.77-.66-11.54-1.35-17.3-2.06-6.84-.85-13.67-1.71-20.51-2.61-7.52-.99-15.04-2-22.56-3.03-3.84-.52-7.65-1.18-11.5-1.6-1.33-.15-1.77-.61-1.68-1.87,.46-6.26,.87-12.53,1.33-18.79,.19-2.55,.25-5.12,.42-7.67,.21-3.33,.55-6.66,.63-9.99,1.12,.3,2.24,.6,3.37,.89,14.05,3.59,28.27,6.23,42.67,8.07,10.32,1.32,20.67,2.16,31.03,2.56,7.99,.31,15.97,.55,23.92,1.44Z"/><path class="cls-1" d="M727.61,475.21c-6.12,1.5-11.98,3.81-17.96,5.75-14.04,4.56-28.04,9.25-42.06,13.87-21.7,7.14-43.4,14.27-65.1,21.4-22.44,7.37-44.88,14.74-67.32,22.11-11.15,3.66-22.29,7.33-33.44,10.99-22.07,7.25-44.14,14.5-66.21,21.75-7.97,2.62-15.94,5.23-23.92,7.85-2.29,.75-2.68,.46-2.42-1.81,.95-8.14,1.78-16.3,2.31-24.48,.11-1.64,.95-2.42,2.47-2.93,19.24-6.42,38.47-12.87,57.69-19.35,23.93-8.07,47.85-16.17,71.78-24.25,11.19-3.78,22.39-7.54,33.58-11.32,23.85-8.06,47.7-16.13,71.55-24.19,11.78-3.98,23.57-7.93,35.34-11.91,14.57-4.93,29.14-9.87,43.7-14.81v31.33Z"/><path class="cls-1" d="M727.61,106.74c-4.07-.47-8.14-.96-12.22-1.39-5.93-.62-11.86-1.23-17.79-1.79-5.63-.53-11.27-.97-16.9-1.51-5.7-.55-11.39-1.19-17.09-1.75-5.4-.53-10.8-.99-16.19-1.52-5.85-.57-11.7-1.2-17.56-1.77-5.32-.52-10.64-.99-15.96-1.5-6.09-.59-12.17-1.21-18.26-1.79-5.47-.52-10.96-.96-16.43-1.49-5.7-.55-11.39-1.19-17.09-1.75-5.4-.53-10.8-.99-16.19-1.51-5.85-.57-11.7-1.2-17.56-1.77-5.47-.53-10.96-.98-16.43-1.51-5.7-.55-11.39-1.18-17.09-1.73-5.47-.53-10.95-1-16.43-1.53-5.93-.57-11.86-1.19-17.79-1.77-5.24-.51-10.49-.99-15.73-1.5-1.55-.15-2.33,.26-2.69,2.01-2.2,10.85-4.54,21.67-6.85,32.5-.27,1.28-.62,2.55-.93,3.82-9.03,.07-17.71,1.67-25.7,6.08-1.86,1.03-3.7,.33-5.45-.09-8.51-2.04-16.44-5.56-24.18-9.57-.45-.23-.76-.53-.8-1.05,1.01,0,2.04-.1,3.03,.03,7.54,.98,15.14,1.18,22.7,1.77,6.26,.49,12.55,.68,18.82,1.14,1.11,.08,1.56-.09,1.83-1.12,.55-2.1,1.19-4.18,1.78-6.27,2.66-9.33,5.29-18.66,7.99-27.97,.43-1.47,.51-2.13-1.43-2.33-4.85-.49-9.71-.93-14.57-1.36-9.49-.85-18.95-1.9-28.44-2.73-4.37-.38-8.08-1.79-11.56-4.66-9.88-8.14-20.04-15.93-30.07-23.89-6.25-4.96-12.47-9.96-18.71-14.95,.47,.02,.95-.03,1.4,.08,19.39,4.47,38.77,8.97,58.17,13.43,17.13,3.94,34.26,7.87,51.41,11.72,3.16,.71,6.25,1.7,9.55,1.93,4.62,.32,9.23,.95,13.84,1.48,4.91,.56,9.82,1.18,14.73,1.74,4.76,.54,9.54,1.01,14.3,1.55,4.91,.55,9.82,1.17,14.73,1.73,4.76,.54,9.53,1.02,14.3,1.56,4.76,.55,9.51,1.18,14.27,1.71,4.84,.54,9.7,.96,14.54,1.51,6.14,.7,12.27,1.52,18.41,2.23,4.76,.55,9.54,.97,14.31,1.51,6.37,.72,12.74,1.52,19.11,2.24,4.69,.53,9.39,.97,14.07,1.5,4.91,.56,9.81,1.22,14.73,1.77,4.76,.54,9.54,.97,14.31,1.51,6.37,.72,12.74,1.51,19.11,2.24,4.69,.53,9.39,.97,14.07,1.5,6.37,.72,12.74,1.51,19.11,2.24,4.76,.54,9.53,1.03,14.3,1.56,5.07,.56,10.14,1.14,15.2,1.72v17.77Z"/><path class="cls-1" d="M727.61,377.01c-7.61-.77-15.22-1.59-22.85-2.3-6.01-.56-12.04-.91-18.05-1.46-5.77-.53-11.53-1.24-17.3-1.79-4.24-.4-8.49-.62-12.73-1.01-6-.55-12-1.21-18-1.78-4.01-.38-8.02-.65-12.03-1.02-6.08-.57-12.16-1.2-18.24-1.77-4.01-.38-8.02-.66-12.03-1.04-6.16-.58-12.31-1.22-18.47-1.79-4.09-.38-8.18-.68-12.27-1.01-4.09-.33-8.18-.61-12.27-1.01-1.48-.14-2.43-.79-1.89-2.64,.7-2.39,.47-4.92,.69-7.38,.67-7.55,1.25-15.11,1.87-22.67,.36-4.4,.78-8.79,.99-13.2,.07-1.53,.64-1.81,2.02-1.65,5.6,.65,11.22,1.19,16.83,1.8,5.46,.59,10.91,1.23,16.36,1.79,3.85,.39,7.71,.65,11.56,1.02,5.92,.57,11.84,1.21,17.77,1.77,4.01,.38,8.02,.67,12.03,1.03,6.47,.59,12.93,1.31,19.41,1.76,4.1,.28,8.18,.66,12.27,1.04,6.85,.63,13.71,1.34,20.57,1.78,4.33,.28,8.65,.65,12.97,1.01,7.4,.62,14.82,1.07,22.21,1.78,2.84,.27,5.72,.44,8.58,.58v48.16Z"/><path class="cls-3" d="M727.61,88.98c-5.07-.57-10.13-1.16-15.2-1.72-4.76-.53-9.53-1.02-14.3-1.56-6.37-.73-12.74-1.52-19.11-2.24-4.69-.53-9.39-.97-14.07-1.5-6.37-.72-12.74-1.52-19.11-2.24-4.76-.54-9.54-.97-14.31-1.51-4.91-.56-9.81-1.21-14.73-1.77-4.69-.53-9.39-.97-14.07-1.5-6.37-.72-12.74-1.52-19.11-2.24-4.76-.54-9.54-.96-14.31-1.51-6.14-.71-12.27-1.52-18.41-2.23-4.84-.55-9.7-.97-14.54-1.51-4.76-.53-9.51-1.16-14.27-1.71-4.76-.55-9.53-1.02-14.3-1.56-4.91-.56-9.82-1.17-14.73-1.73-4.76-.54-9.54-1.01-14.3-1.55-4.91-.56-9.82-1.18-14.73-1.74-4.61-.53-9.21-1.16-13.84-1.48-3.29-.23-6.38-1.22-9.55-1.93-17.15-3.86-34.28-7.79-51.41-11.72-19.39-4.46-38.78-8.96-58.17-13.43-.45-.1-.93-.05-1.4-.08-1.07-.47-2.18-.74-3.33-.99-5.25-1.17-10.74-1.84-14.43-6.5h69.21c.26,1.45,1.62,1.1,2.44,1.29,18.24,4.24,36.53,8.28,54.74,12.61,8.83,2.1,17.71,3.62,26.75,4.37,4.54,.37,9.06,1.01,13.59,1.53,4.83,.56,9.66,1.16,14.5,1.7,4.84,.55,9.68,1.04,14.52,1.58,4.83,.55,9.66,1.15,14.5,1.69,4.76,.53,9.53,.98,14.3,1.52,4.99,.56,9.97,1.19,14.95,1.76,4.68,.53,9.38,.99,14.06,1.52,4.99,.56,9.97,1.19,14.96,1.75,4.68,.53,9.38,1,14.06,1.53,4.99,.56,9.97,1.18,14.96,1.74,4.68,.53,9.37,1,14.06,1.54,4.91,.56,9.81,1.18,14.73,1.73,4.76,.54,9.53,1.01,14.29,1.55,4.91,.55,9.82,1.17,14.73,1.73,4.76,.54,9.53,1.02,14.29,1.56,4.91,.55,9.82,1.16,14.73,1.72,4.76,.54,9.52,1.05,14.29,1.56,5.69,.6,11.32,1.72,17.06,1.72v18.24Z"/><path class="cls-1" d="M727.61,204.94c-7.6-.08-15.13-1.05-22.67-1.8-4.39-.44-8.8-.63-13.2-1.01-6.32-.56-12.61-1.31-18.94-1.75-4.1-.28-8.18-.66-12.26-1.04-6.7-.62-13.4-1.23-20.1-1.82-4.16-.36-8.34-.63-12.5-1-6.55-.57-13.09-1.21-19.64-1.79-4.09-.36-8.18-.66-12.26-1.01-6.7-.59-13.4-1.23-20.1-1.8-2.93-.25-5.88-.35-8.82-.54-2.96-.19-3.13-.51-2.76-3.44,1-8.05,1.91-16.12,2.88-24.17,.44-3.68,.96-7.36,1.4-11.04,.16-1.33,1.12-1.13,1.92-1.04,7.46,.87,14.95,1.28,22.44,1.86,8.25,.64,16.48,1.55,24.72,2.27,4.71,.41,9.43,.59,14.14,.99,6.63,.55,13.24,1.25,19.87,1.81,4.63,.39,9.27,.6,13.9,.99,6.55,.55,13.09,1.22,19.64,1.8,4.16,.37,8.33,.71,12.5,.98,7.26,.47,14.51,1.04,21.74,1.83,2.69,.29,5.41,.36,8.12,.52v40.21Z"/><path class="cls-1" d="M727.61,261.98c-7.3-.77-14.6-1.59-21.91-2.3-5.62-.55-11.26-.91-16.88-1.46-7.31-.71-14.6-1.57-21.91-2.28-5.62-.55-11.26-.91-16.88-1.46-7.31-.71-14.6-1.57-21.91-2.28-5.54-.54-11.1-.91-16.65-1.45-7.15-.7-14.29-1.54-21.45-2.25-5.62-.55-11.25-.98-16.88-1.48-5.01-.45-10.01-.95-15.02-1.4-.91-.08-1.24-.47-1.12-1.35,.89-6.43,1.85-12.84,2.63-19.28,.6-4.91,1.1-9.83,1.89-14.72,.23-1.39,.57-1.45,1.91-1.29,4.3,.53,8.64,.72,12.95,1.1,6.47,.57,12.93,1.21,19.4,1.78,4.09,.37,8.18,.66,12.26,1.02,6.7,.59,13.4,1.22,20.1,1.8,4.24,.37,8.49,.63,12.73,1.01,6.47,.57,12.93,1.2,19.4,1.78,4.16,.37,8.33,.66,12.5,1.02,6.62,.58,13.24,1.21,19.87,1.8,4.01,.36,8.02,.65,12.03,1,6.78,.6,13.55,1.22,20.33,1.82,.85,.07,1.71,.04,2.57,.05v38.81Z"/><path class="cls-5" d="M311.91,23.04c3.69,4.65,9.18,5.32,14.43,6.5,1.14,.26,2.26,.52,3.33,.99,6.23,4.98,12.45,9.99,18.71,14.95,10.03,7.96,20.19,15.75,30.07,23.89,3.48,2.87,7.19,4.27,11.56,4.66,9.49,.83,18.95,1.88,28.44,2.73,4.86,.44,9.72,.87,14.57,1.36,1.94,.2,1.86,.86,1.43,2.33-2.7,9.31-5.33,18.65-7.99,27.97-.6,2.09-1.23,4.17-1.78,6.27-.27,1.03-.72,1.2-1.83,1.12-6.27-.46-12.55-.66-18.82-1.14-7.57-.59-15.17-.79-22.7-1.77-1-.13-2.02-.03-3.03-.03-1.74-.17-3.24-.97-4.74-1.8-4.47-2.47-8.93-4.96-13-8.08-1.85-2.24-4.32-3.76-6.55-5.54-10.23-8.2-20.51-16.33-30.78-24.49-9.66-7.67-19.3-15.36-28.99-22.99-3.23-2.54-4.39-2.18-6.18,1.58-2.1,.03-3.26-1.65-4.69-2.72-3.47-2.59-6.69-5.51-10.21-8.03-1.58-1.13-1.26-1.87-.37-3.09,3.18-4.38,6.3-8.81,9.45-13.22,.31-.44,.7-.84,.67-1.44h28.99Z"/><path class="cls-4" d="M727.61,607.07c0,19.48-.02,38.97,.05,58.45,0,1.6-.32,1.92-1.92,1.92-64.53-.05-129.06-.04-193.59-.04,3.01-1.86,6.48-2.38,9.8-3.33,.4,.04,.74-.06,.94-.45,1.71-.47,3.42-.95,5.14-1.42,1.78-.55,3.55-1.1,5.33-1.65,20.32-6.26,40.64-12.52,60.96-18.79,11.49-3.55,22.98-7.14,34.47-10.68,19.87-6.12,39.75-12.25,59.64-18.32,6.37-1.95,12.64-4.25,19.17-5.68Z"/><path class="cls-1" d="M727.61,70.74c-5.75,0-11.38-1.12-17.06-1.72-4.76-.5-9.53-1.02-14.29-1.56-4.91-.56-9.82-1.16-14.73-1.72-4.76-.54-9.53-1.02-14.29-1.56-4.91-.56-9.82-1.17-14.73-1.73-4.76-.54-9.53-1.01-14.29-1.55-4.91-.56-9.81-1.17-14.73-1.73-4.68-.53-9.37-1.01-14.06-1.54-4.99-.56-9.97-1.18-14.96-1.74-4.68-.53-9.38-1-14.06-1.53-4.99-.56-9.97-1.19-14.96-1.75-4.68-.53-9.38-.99-14.06-1.52-4.99-.56-9.97-1.2-14.95-1.76-4.76-.53-9.53-.99-14.3-1.52-4.84-.54-9.66-1.14-14.5-1.69-4.84-.55-9.68-1.03-14.52-1.58-4.83-.55-9.66-1.14-14.5-1.7-4.53-.53-9.05-1.16-13.59-1.53-9.04-.75-17.92-2.27-26.75-4.37-18.22-4.33-36.5-8.37-54.74-12.61-.82-.19-2.19,.16-2.44-1.29h133.27c.06,.85,.68,.84,1.33,.96,8.73,1.66,17.46,3.35,26.19,5.02,10.71,2.05,21.41,4.12,32.13,6.13,16.18,3.04,32.38,6.02,48.56,9.07,11.09,2.09,22.16,4.28,33.25,6.4,12.98,2.48,25.97,4.94,38.96,7.39,10.94,2.07,21.88,4.12,32.82,6.18v6.55Z"/><path class="cls-1" d="M21.53,550.49c3.45-.26,6.61-1.64,9.86-2.62,9.81-2.93,19.59-5.95,29.36-9.01,2.19-.69,3.32-.29,4.02,2.12,1.81,6.18,3.92,12.28,5.91,18.41,2.21,6.79,4.42,13.57,6.63,20.36,5.11,15.64,10.22,31.27,15.32,46.91,.38,1.18,.65,2.4,1.05,3.57,1.33,3.96,1.21,3.24-2.51,3.9-13.84,2.44-27.73,4.68-41.59,7-1.8,.3-3.06-.02-3.87-1.97-3.62-8.75-7.37-17.44-11.08-26.16-4.05-9.5-8.11-18.99-12.14-28.49-.21-.5-.45-.78-.98-.83v-33.2Z"/><path class="cls-1" d="M21.53,451.36c.84-.08,.83-.68,.95-1.33,1.35-7.22,2.84-14.41,4.06-21.65,.31-1.82,1.15-1.97,2.49-1.77,6.35,.93,12.69,1.88,19.03,2.84,5.96,.9,11.9,1.9,17.87,2.7,2.04,.27,2.85,.89,2.89,3.16,.23,10.62,1.07,21.22,1.42,31.84,.19,5.72,.65,11.45,.89,17.18,.43,10.29,1.09,20.58,1.72,30.86,.08,1.36-.71,1.54-1.62,1.82-7.27,2.22-14.54,4.46-21.81,6.67-8.46,2.57-16.93,5.11-25.39,7.69-.82,.25-1.63,.53-2.5,.44v-80.43Z"/><path class="cls-3" d="M541.96,664.06c-3.32,.95-6.79,1.47-9.8,3.33h-59.85c.12-1.2,1.21-1.11,1.94-1.34,21.96-6.99,43.94-13.95,65.92-20.89,11.25-3.55,22.51-7.05,33.76-10.61,21.31-6.73,42.61-13.49,63.92-20.24,11.47-3.63,22.94-7.25,34.41-10.87,17.61-5.55,35.23-11.09,52.84-16.66,.85-.27,1.68-.27,2.53-.29v18.7c-.68,.1-1.4,.12-2.05,.32-16.21,5.06-32.42,10.13-48.63,15.23-11.47,3.6-22.93,7.24-34.39,10.86-21.23,6.71-42.45,13.43-63.68,20.14-8.36,2.64-16.74,5.19-25.07,7.94-1.97,.65-4.3,.65-5.76,2.51-1.71,.47-3.42,.95-5.14,1.42-.7-.67-.82-.11-.94,.45Z"/><path class="cls-1" d="M288.53,667.39c0-8.72,.07-17.45-.05-26.17-.03-1.93,.68-2.7,2.41-3.27,32.37-10.73,64.72-21.52,97.08-32.3,3.81-1.27,3.73-1.25,4.4,2.83,1.46,8.99,2.99,17.98,4.55,26.96,.27,1.55-.09,2.38-1.69,2.91-10.61,3.52-21.19,7.13-31.78,10.72-16.77,5.68-33.53,11.35-50.29,17.05-.65,.22-1.66,.16-1.71,1.27h-22.91Z"/><path class="cls-3" d="M727.61,64.19c-10.94-2.06-21.88-4.11-32.82-6.18-12.99-2.45-25.98-4.91-38.96-7.39-11.09-2.12-22.16-4.31-33.25-6.4-16.18-3.05-32.38-6.03-48.56-9.07-10.71-2.01-21.42-4.08-32.13-6.13-8.73-1.67-17.46-3.37-26.19-5.02-.64-.12-1.26-.11-1.33-.96h95.86c.06,.67,.48,.84,1.1,.94,3.73,.63,7.46,1.27,11.17,1.98,11.15,2.13,22.28,4.3,33.43,6.44,12.96,2.48,25.93,4.94,38.9,7.39,10.92,2.07,21.85,4.11,32.77,6.17v18.24Z"/><path class="cls-1" d="M21.53,629.51c2.18,1.84,2.57,4.64,3.63,7.04,3.4,7.66,6.6,15.41,9.81,23.15,.6,1.43,1.5,1.78,2.92,1.54,14.86-2.5,29.72-4.94,44.58-7.45,14.47-2.44,28.94-4.93,43.41-7.38,7.39-1.25,14.79-2.45,22.17-3.7,.93-.16,1.52,.02,1.71,1.01,.1,.53,.36,1.06,.33,1.58-.29,4.75,.62,9.46,.46,14.2-.09,2.66,.47,5.25,.5,7.89-42.49,0-84.98-.02-127.48,.05-1.87,0-2.1-.55-2.09-2.21,.07-11.91,.04-23.81,.04-35.72Z"/><path class="cls-1" d="M200.62,665.98c2.08-.16,4.16-.36,6.25-.46,1.28-.06,1.27-.91,1.23-1.79-.14-3.33-.51-6.66-.41-9.98,.15-5.06-.53-10.08-.55-15.12,0-1.63,.47-2.2,2.13-2.13,6.57,.29,13.13,.69,19.68,1.37,2.54,.26,5.1,.24,7.65,.45,8.1,.67,16.23,.91,24.34,1.55,2.4,.19,4.78,.37,7.19,.42,1.8,.03,2.74,.68,2.7,2.81-.13,8.1-.05,16.19-.05,24.29h-70.14v-1.4Z"/><path class="cls-1" d="M727.61,45.96c-10.92-2.05-21.85-4.1-32.77-6.17-12.97-2.45-25.94-4.91-38.9-7.39-11.15-2.13-22.28-4.31-33.43-6.44-3.71-.71-7.44-1.35-11.17-1.98-.62-.1-1.03-.28-1.1-.94,38.5,0,77,.01,115.5-.04,1.6,0,1.94,.31,1.92,1.92-.11,7.01-.05,14.03-.05,21.04Z"/><path class="cls-1" d="M245.51,42.2c-3.67,5.29-7.23,10.67-11.09,15.82-1.08,1.45-3.2,.66-4.35-.25-5.81-4.65-11.47-9.5-17.2-14.26-6.98-5.8-13.99-11.57-20.97-17.37-1.19-.99-2.3-2.06-3.45-3.09,11.85,0,23.69,0,35.54,0,1.49,2.62,4.12,4.04,6.31,5.9,4.75,4.04,9.64,7.92,14.48,11.86,.43,.35,.73,.8,.73,1.39Z"/><path class="cls-5" d="M200.62,665.98v1.4h-31.8c-.42-8.68-.79-17.37-1.31-26.05-.09-1.56,.85-1.73,1.78-1.87,3.83-.57,7.68-1.02,11.52-1.53,2.07-.28,4.14-.59,6.21-.9,1.58-.24,2.39,.08,2.4,2.01,.05,7.08,.27,14.15,.47,21.23,.04,1.55,.3,3.09,.4,4.63,.08,1.16,.87,1.1,1.67,1.1,2.88,0,5.77-.01,8.65-.02Z"/><path class="cls-1" d="M548.04,662.19c1.46-1.87,3.79-1.86,5.76-2.51,8.32-2.74,16.71-5.3,25.07-7.94,21.23-6.71,42.45-13.42,63.68-20.14,11.46-3.62,22.92-7.26,34.39-10.86,16.2-5.09,32.41-10.16,48.63-15.23,.65-.2,1.37-.22,2.05-.32v1.87c-6.53,1.43-12.8,3.73-19.17,5.68-19.89,6.07-39.76,12.2-59.64,18.32-11.5,3.54-22.98,7.13-34.47,10.68-20.32,6.27-40.64,12.53-60.96,18.79-1.78,.55-3.55,1.1-5.33,1.65Z"/><path class="cls-1" d="M367.56,667.39c0-.85,.7-.91,1.27-1.11,9.9-3.36,19.81-6.7,29.7-10.1,1.31-.45,1.74-.11,1.94,1.19,.51,3.35,1.13,6.68,1.7,10.02h-34.6Z"/><path class="cls-5" d="M260.95,23.04c-.33,1.87-1.91,2.97-2.77,4.51-.21,.38-.62,.68-.93,.32-1.54-1.82-4.04-2.59-5.19-4.83h8.88Z"/><path class="cls-1" d="M420.35,460.32c.62-6.01,1.24-11.93,1.83-17.85,.37-3.77,.66-7.55,1.03-11.33,.58-6.08,1.22-12.15,1.79-18.23,.37-3.85,.64-7.71,1.01-11.56,.57-5.92,1.2-11.84,1.77-17.76,.38-3.93,.66-7.86,1.04-11.79,.57-5.92,1.21-11.84,1.78-17.76,.37-3.85,.65-7.71,1.02-11.56,.58-6.16,1.23-12.3,1.8-18.46,.52-5.62,1-11.25,1.46-16.88,.18-2.16,.6-4.29,.54-6.48-.03-1.32,.88-1.91,2.21-1.72,5.73,.83,11.47,1.68,17.2,2.49,5.2,.74,10.4,1.47,15.61,2.16,7.04,.94,14.09,1.88,21.14,2.74,5.91,.72,11.84,1.27,17.75,1.96,7.52,.88,15.03,1.84,22.55,2.73,1.15,.14,2.34,0,3.5,.15,1.43,.18,2.07,.92,1.91,2.54-.55,5.38-.93,10.79-1.39,16.18-.59,6.86-1.22,13.71-1.79,20.57-.37,4.47-.65,8.96-1.01,13.43-.59,7.25-1.22,14.49-1.81,21.73-.35,4.32-.65,8.64-.99,12.97-.6,7.4-1.38,14.79-1.77,22.2-.25,4.72-.73,9.42-1.06,14.13-.48,6.94-1.22,13.86-1.77,20.8-.4,5.02-.74,10.04-.98,15.07-.16,3.3-.3,3.42-3.59,3.07-6.46-.7-12.93-1.23-19.39-1.94-7.68-.85-15.34-1.86-23.02-2.71-5.15-.57-10.32-.93-15.47-1.49-6.3-.68-12.58-1.5-18.87-2.21-4.92-.55-9.85-1-14.77-1.53-2.69-.29-5.38-.61-8.06-.95-1.98-.25-.73-1.87-1.18-2.7Z"/><path class="cls-1" d="M311.76,242.62c-.89,7.94-1.79,15.69-2.61,23.45-.69,6.61-1.22,13.25-1.93,19.86-.85,7.99-1.86,15.97-2.72,23.96-.56,5.15-.96,10.32-1.48,15.48-.25,2.46-.66,4.9-.9,7.36-.1,1.04-.59,1.37-1.52,1.24-6.05-.84-12.09-1.71-18.13-2.53-5.36-.73-10.72-1.41-16.09-2.12-4.98-.66-9.96-1.31-14.94-1.99-6.43-.88-12.85-1.79-19.28-2.68-6.43-.9-12.85-1.82-19.28-2.69-2.91-.4-5.83-.81-8.75-1.01-1.82-.12-2.58-.68-2.62-2.65-.16-7.71,.46-15.39,.62-23.08,.18-8.53,.6-17.06,.9-25.6,.31-8.92,.61-17.84,.94-26.76,.31-8.53,.64-17.06,.93-25.6,.29-8.77,.91-17.52,.85-26.3,0-1.42,.78-2.11,1.9-2.63,6.7-3.11,13.38-6.25,20.1-9.33,6.5-2.98,13.05-5.83,19.51-8.89,1.71-.81,2.57-.62,3.59,.97,7.18,11.16,15.16,21.76,23.56,32.02,5.3,6.48,10.79,12.83,16.75,18.74,4.69,4.65,9.32,9.35,14.02,13.99,1.82,1.8,3.78,3.46,5.65,5.21,.49,.46,1.16,.88,.93,1.57Z"/><path class="cls-1" d="M143.58,504.12c0,6.53,0,6.42-5.21,6.65-9.14,.39-18.27,.83-27.4,1.43-4.87,.32-9.72,.84-14.61,.9-1.38,.02-2.76,.3-4.15,.44-.92,.09-1.41-.25-1.52-1.28-.13-1.23-.42-2.42-.46-3.68-.26-8.06-.47-16.13-.96-24.18-.36-5.88-.64-11.76-.94-17.64-.49-9.52-.88-19.05-1.48-28.56-.24-3.85,.06-7.73-.66-11.59-.32-1.71,.48-3.64,.86-5.46,3.97-19,7.99-37.99,11.95-56.99,2.59-12.42,5.12-24.84,7.64-37.28,.38-1.86,.68-2.84,3.22-2.35,10.84,2.11,21.76,3.87,32.65,5.72,1.76,.3,2.71,.66,2.16,2.97-.65,2.76-.28,5.7-.53,8.57-.59,6.79-.64,13.63-1.05,20.44-.54,8.96-1.23,17.91-1.82,26.87-.18,2.78-.26,5.58-.4,8.36-.53,10-1.53,20-1,30.02,.56,10.53,1.02,21.07,1.45,31.6,.28,6.89,.65,13.78,.91,20.68,.32,8.59,.94,17.17,1.35,24.36Z"/><path class="cls-1" d="M400.29,460.77c-5.45-.57-10.29-1.07-15.13-1.6-3.69-.4-7.37-.85-11.05-1.27-5.3-.6-10.59-1.22-15.89-1.78-5-.53-10.01-.96-15-1.5-4.91-.53-9.82-1.17-14.73-1.71-4.92-.55-9.84-1.04-14.76-1.55-1.61-.17-3.23-.34-4.85-.47-.75-.06-1.14-.29-1.04-1.14,.33-2.92,.59-5.84,.91-8.76,.41-3.76,.88-7.52,1.3-11.28,.6-5.37,1.2-10.75,1.76-16.13,.53-5.08,.99-10.16,1.52-15.23,.56-5.38,1.2-10.75,1.77-16.13,.53-5.08,1.01-10.16,1.5-15.24,.34-3.46,.66-6.93,.99-10.39,.18-1.83,1.33-2.24,2.94-2.02,4.82,.67,9.65,1.32,14.47,1.99,5.28,.73,10.55,1.48,15.83,2.21,7.57,1.06,15.14,2.14,22.72,3.16,6.36,.86,12.72,1.62,19.08,2.46,5.74,.76,11.48,1.59,17.23,2.32,1.28,.16,1.26,.96,1.19,1.82-.32,4.09-.63,8.18-1.02,12.26-.39,4.08-.89,8.14-1.3,12.21-.62,6.23-1.23,12.46-1.8,18.69-.52,5.62-.95,11.25-1.49,16.87-.54,5.69-1.19,11.37-1.74,17.06-.39,4.08-.88,8.17-.99,12.26-.06,2.29-.74,3.22-2.41,2.88Z"/><path class="cls-1" d="M150.79,229.77c-.35,6.92-.62,14.66-1.17,22.39-.57,7.96-.96,15.93-1.42,23.9-.47,7.97-.89,15.94-1.47,23.89-.26,3.62,0,7.28-.73,10.89-.31,1.51-.79,1.77-2.11,1.54-15.15-2.64-30.31-5.24-45.46-7.89-14.85-2.6-29.68-5.27-44.53-7.84-1.62-.28-2.08-.74-1.75-2.42,2.94-15.18,5.78-30.38,8.69-45.57,1.93-10.1,3.93-20.19,5.88-30.29,.4-2.05,.87-4.09,1.09-6.16,.21-1.89,1.17-2.39,2.85-2.04,9.84,2.08,19.67,4.19,29.52,6.25,12.34,2.58,24.69,5.14,37.04,7.69,4.02,.83,8.04,1.62,12.06,2.44,1.31,.27,2.15,.91,1.53,3.23Z"/><path class="cls-1" d="M204.37,547.09c-.61-6.36-.14-12.76-.59-19.1-.31-4.36-.12-8.7-.36-13.04-.57-10.32-.68-20.65-1.05-30.97-.15-4.11-.02-8.24-.38-12.33-.44-4.97-.38-9.93-.45-14.9-.03-1.77,.34-2.13,2.29-1.83,7.56,1.17,15.17,1.97,22.75,3.01,8.5,1.16,16.97,2.46,25.47,3.62,6.43,.88,12.88,1.61,19.32,2.45,4.83,.63,9.65,1.31,14.47,1.97,1.91,.26,2.47,1.11,2.08,3.16-.66,3.48-.86,7.05-1.25,10.59-.6,5.53-1.23,11.06-1.79,16.59-.53,5.15-.95,10.32-1.5,15.47-.55,5.15-1.22,10.28-1.78,15.43-.53,4.84-.98,9.69-1.48,14.54-.62,6.08-1.28,12.15-1.85,18.23-.12,1.26-.85,1.35-1.75,1.27-3.39-.33-6.77-.68-10.15-1.07-4.84-.55-9.67-1.14-14.5-1.73-5.98-.73-11.96-1.51-17.94-2.22-5.83-.69-11.68-1.3-17.51-1.99-3.37-.4-6.73-.98-10.11-1.26-1.71-.14-2.08-.88-1.95-2.38,.1-1.16,.02-2.34,.02-3.5Z"/><path class="cls-1" d="M296.14,560.95c.66-5.89,1.44-12.41,2.13-18.94,.55-5.15,.95-10.32,1.5-15.48,.53-5.07,1.19-10.13,1.74-15.2,.55-5.08,1-10.16,1.53-15.24,.56-5.38,1.18-10.75,1.77-16.13,.35-3.23,.78-6.45,.99-9.69,.09-1.43,.72-1.74,1.91-1.6,4.91,.57,9.82,1.16,14.74,1.71,4.84,.54,9.69,1.02,14.53,1.56,4.99,.56,9.98,1.17,14.97,1.72,4.92,.54,9.85,1.02,14.77,1.55,5.22,.56,10.44,1.18,15.67,1.74,4.92,.53,9.85,1.02,14.77,1.54,.69,.07,1.36,.28,2.05,.33,1.25,.08,1.31,.58,1.19,1.8-.75,7.62-1.29,15.27-1.98,22.9-.89,9.86-1.93,19.7-2.76,29.57-.25,3.02-1.42,4.67-4.44,5.63-12.35,3.94-24.63,8.12-36.93,12.24-11.71,3.92-23.41,7.89-35.11,11.84-.74,.25-1.49,.47-2.17,.84-3.53,1.89-7.28,1.88-11.08,1.28-2.37-.37-4.72-.78-7.13-.88-1.49-.06-3.12-.19-2.65-3.07Z"/><path class="cls-1" d="M540.59,255.82c-7.95-.89-15.93-1.13-23.92-1.44-10.36-.4-20.72-1.24-31.03-2.56-14.4-1.84-28.62-4.47-42.67-8.07-1.13-.29-2.25-.59-3.37-.89,.44-6.01,1.31-12.04,1.17-18.04-.09-4.07,1.68-4.81,5.01-5.62,8.85-2.14,16.63-6.56,23.04-13,7.85-7.89,13.01-17.32,14.7-28.45,.19-1.22,.86-1.91,2.02-2.27,13.83-4.38,27.66-8.77,41.48-13.19,6.36-2.03,12.7-4.12,19.05-6.19,.74-.24,1.48-.48,2.22-.72,1.74-.55,2.13-.3,1.81,1.78-1.04,6.71-1.68,13.49-2.53,20.23-.86,6.82-1.82,13.62-2.69,20.43-.85,6.67-1.61,13.34-2.45,20.01-.7,5.59-1.46,11.18-2.17,16.77-.54,4.21-1.11,8.42-1.54,12.65-.3,3.02,1.15,5.72,1.86,8.55Z"/><path class="cls-5" d="M183.32,396.46c0,18-.11,36,.04,53.99,.1,11.19,.48,22.39,.95,33.57,.41,9.63,.64,19.26,.95,28.9,.32,10.02,.61,20.05,.94,30.07,.32,9.55,.62,19.11,.93,28.66,.32,10.1,.6,20.2,.99,30.3,.18,4.74,.12,9.48,.39,14.22,.12,2.08-.36,2.95-2.73,3.16-5.24,.47-10.44,1.38-15.64,2.16-3.31,.5-3.53,.3-3.64-3.04-.29-8.85-.52-17.71-1.02-26.56-.37-6.51-.63-13.03-.93-19.55-.47-10.47-1.01-20.94-1.43-31.42-.26-6.36-.56-12.72-.89-19.08-.56-10.78-1-21.57-1.45-32.36-.26-6.36-.61-12.72-.91-19.08-.5-10.63-1.01-21.26-1.43-31.89-.3-7.61-1.12-15.21-.77-22.82,.4-8.83,1.18-17.64,1.74-26.47,.19-3.02,.26-6.05,.46-9.07,.64-9.53,.94-19.08,1.55-28.61,.33-5.11,.82-10.21,.9-15.34,.04-2.61,.66-2.98,3.36-2.57,5.13,.79,10.26,1.58,15.41,2.15,1.76,.19,2.22,.82,2.21,2.45-.05,9.97-.03,19.94-.03,29.92,0,9.43,0,18.85,0,28.28h.04Z"/><path class="cls-1" d="M328.93,255.58c.7,.46,1.31,.81,1.87,1.23,11.96,8.85,24.65,16.55,38.11,22.85,14.85,6.95,30.21,12.55,46.4,15.6,1.83,.34,2.76,.75,2.43,3.28-.98,7.43-1.32,14.94-2.03,22.41-.69,7.31-1.55,14.6-2.28,21.91-.16,1.62-.1,3.24-.46,4.85-.22,1.01-.64,1.35-1.56,1.22-4.82-.69-9.63-1.42-14.45-2.08-5.36-.73-10.72-1.39-16.09-2.1-6.21-.81-12.41-1.62-18.61-2.46-5.28-.72-10.55-1.47-15.83-2.21-7.57-1.06-15.14-2.11-22.72-3.16-.54-.07-1.09-.14-1.63-.1-1.96,.13-2.34-.79-2.12-2.59,.67-5.29,1.18-10.59,1.76-15.89,.57-5.14,1.16-10.29,1.71-15.43,.39-3.61,.71-7.23,1.09-10.85,.57-5.3,1.19-10.59,1.74-15.9,.54-5.15,1.02-10.31,1.53-15.47,.15-1.46,.33-2.92,.48-4.38,.05-.47,.3-.64,.63-.72Z"/><path class="cls-1" d="M148.72,617.68q0,6.76-5.42,7.68c-9.67,1.65-19.35,3.3-29.01,5-1.49,.26-1.88-.54-2.25-1.69-3.67-11.38-7.34-22.76-11.05-34.12-5.74-17.57-11.51-35.12-17.25-52.68-.8-2.43-1.48-4.91-2.33-7.32-.47-1.33-.17-1.88,1.22-2.31,2.73-.83,5.57-.55,8.31-.75,3.7-.28,7.43-.47,11.15-.67,8.97-.48,17.92-1.23,26.88-1.78,4.65-.28,9.31-.35,13.97-.51,.86-.03,1.56,.11,1.57,1.21,0,1.94,.53,3.82,.52,5.78-.04,8.62,.75,17.21,.98,25.83,.18,6.5,.63,13.01,.91,19.52,.31,7.13,.51,14.27,.99,21.38,.37,5.57,.05,11.17,.82,15.44Z"/><path class="cls-5" d="M199.75,171.75c-2.77,2.37-6.35,3.18-9.51,4.8-1.34,.69-1.77,1.36-1.81,2.78-.27,10.49-.5,20.98-.98,31.46-.4,8.69-.63,17.39-.95,26.09-.33,8.77-.61,17.55-.93,26.32-.32,8.62-.63,17.23-.93,25.85-.31,8.85-.82,17.7-.88,26.56-.01,1.77-.38,2.62-2.63,2.22-5.1-.92-10.27-1.48-15.43-2.04-1.49-.16-2.1-.66-1.99-2.16,.46-6.19,.87-12.37,1.31-18.56,.2-2.86,.21-5.73,.44-8.6,.56-6.88,.64-13.8,1.09-20.7,.71-10.84,1.3-21.69,1.92-32.53,.43-7.51,.9-15.02,1.36-22.53,.66-10.92,1.31-21.84,1.92-32.77,.43-7.67,.93-15.33,1.36-23,.49-8.75,1.73-17.49,1.59-26.22-.11-6.55,2.32-11.68,5.59-16.86,2.78-4.4,5.37-8.93,7.96-13.45,.87-1.52,1.67-1.74,3.03-.57,4.64,4.01,9.35,7.94,14,11.94,1.64,1.41,3.52,2.58,4.75,4.44-2.19,3.58-4.39,7.15-6.57,10.73-.56,.92-1.42,1.73-1.4,2.9,.03,2.64-.52,5.24-.52,7.89,0,4.42-.26,8.85-.49,13.27-.39,7.58-.84,15.17-1.27,22.75Z"/><path class="cls-1" d="M201.09,359.49c0-6.23,.07-12.47-.04-18.7-.04-2.1,.86-2.27,2.56-2.01,6.34,.95,12.69,1.81,19.04,2.69,7.57,1.06,15.14,2.13,22.72,3.15,6.36,.86,12.73,1.61,19.08,2.47,7.5,1.01,14.99,2.1,22.49,3.13,3.9,.54,7.81,1.1,11.73,1.5,1.45,.15,1.51,.65,1.35,1.94-.66,5.14-1.12,10.29-1.68,15.44-.59,5.45-1.2,10.91-1.79,16.36-.19,1.69-.46,3.38-.51,5.08-.04,1.37-.81,1.54-1.84,1.41-6.51-.87-13.01-1.8-19.52-2.64-5.67-.73-11.36-1.33-17.04-2.02-5.67-.7-11.34-1.45-17.01-2.17-5.52-.69-11.05-1.35-16.57-2.04-5.67-.71-11.34-1.43-17.02-2.15-.15-.02-.3-.12-.45-.12-1.78-.04-4.06,.25-5.09-.96-1.2-1.4-.38-3.73-.4-5.66-.07-4.91-.02-9.82-.02-14.72Z"/><path class="cls-1" d="M68.62,414.48c-5.09-.76-9.67-1.44-14.26-2.13-6.8-1.02-13.6-2.05-20.4-3.08-.23-.03-.46-.05-.7-.07-2.24-.17-2.99-.94-2.46-3.48,2.47-11.81,4.7-23.66,6.94-35.52,3.06-16.18,6.04-32.38,9.08-48.57,.41-2.2,.97-4.38,1.34-6.6,.18-1.1,.73-1.19,1.63-1.02,11.79,2.12,23.58,4.22,35.37,6.35,4.55,.82,4.42,.82,3.47,5.27-2.78,13.09-5.45,26.21-8.18,39.31-2.88,13.86-5.79,27.72-8.68,41.58-.39,1.89-.88,3.78-1.11,5.69-.2,1.63-.84,2.46-2.05,2.25Z"/><path class="cls-1" d="M432.89,135.73c17.67-.5,34.55,15,33.4,35.76-.88,15.92-14.91,32.08-34.52,31.55-17.88-.48-33.25-15.03-32.86-34.88,.34-17.16,15.32-33.15,33.98-32.44Z"/><path class="cls-1" d="M203.02,398.53c4.34,.52,8.57,1.01,12.79,1.54,5.59,.71,11.18,1.46,16.78,2.18,5.82,.75,11.65,1.5,17.47,2.22,5.45,.68,10.9,1.32,16.34,1.99,5.75,.72,11.5,1.47,17.24,2.19,2.99,.38,5.98,.79,8.98,1.05,1.24,.11,1.54,.47,1.39,1.74-.65,5.37-1.18,10.75-1.73,16.14-.65,6.31-1.26,12.62-1.94,18.92-.13,1.23-.51,1.92-2.22,1.66-8.02-1.24-16.07-2.25-24.11-3.31-8.58-1.13-17.17-2.18-25.75-3.34-9.8-1.33-19.58-2.76-29.38-4.13-1.68-.23-3.38-.4-5.08-.52-1.76-.13-2.78-.6-2.76-2.78,.11-11.14,.07-22.29,.03-33.43,0-1.55,.31-2.46,1.95-2.12Z"/><path class="cls-4" d="M319.4,178.29c-3.49-1.37-5.97-4.13-8.6-6.58-13.3-12.35-24.6-26.42-35-41.26-7.17-10.23-13.96-20.7-20.23-31.51-.69-1.19-.71-1.97,.03-3.13,5.96-9.45,11.85-18.94,17.74-28.43,.52-.83,1.35-1.56,1.19-2.7,14.45,11.22,29.14,22.13,44.06,32.73,1.57,1.12,1.69,1.89,.44,3.46-7.69,9.68-12.66,20.48-13.7,32.99-1.35,16.1,4.26,29.96,13.22,42.82,.35,.51,.88,.9,.87,1.59Z"/><path class="cls-1" d="M206.28,607.76c-.2-6.91-.37-13.83-.65-20.73-.19-4.66-.11-9.32-.35-13.97-.09-1.73,.61-2.16,2.2-1.97,7.74,.95,15.49,1.83,23.24,2.78,7.13,.87,14.24,1.85,21.37,2.7,5.99,.71,11.98,1.34,17.98,1.94,1.46,.15,2.87,.6,4.38,.53,1.44-.06,1.54,1.09,1.45,2.15-.33,4.01-.67,8.02-1.07,12.02-.38,3.84-.83,7.68-1.26,11.52-.61,5.45-1.27,10.9-1.83,16.35-.12,1.13-.61,1.42-1.64,1.42-3.96,.01-7.88-.41-11.81-.84-2.62-.29-5.25-.21-7.88-.48-5.85-.6-11.76-.65-17.63-1.05-8.26-.56-16.51-1.25-24.77-1.84-1.04-.07-1.17-.6-1.34-1.48-.57-3.01-.39-6.04-.39-9.06Z"/><path class="cls-1" d="M290.02,619.16c1.07-9.56,2.13-18.9,3.14-28.25,.25-2.31,.32-4.63,.54-6.94,.13-1.4,.14-2.53,2.39-2.25,5.21,.64,10.43,1.23,15.63,1.93,1.01,.14,1.99,0,2.98-.34,18.23-6.19,36.47-12.37,54.71-18.53,7.28-2.46,14.58-4.84,21.86-7.32,1.82-.62,2.06-.27,1.78,1.65-.59,4.05-.78,8.15-1.18,12.23-.41,4.23-.93,8.45-1.25,12.68-.11,1.55-.87,2.05-2.18,2.48-14.75,4.87-29.49,9.79-44.22,14.71-17.32,5.77-34.63,11.55-51.95,17.32-.64,.21-1.31,.37-2.25,.64Z"/><path class="cls-1" d="M526.24,492.56c-.71,.99-1.65,.99-2.41,1.25-19.8,6.67-39.62,13.29-59.42,19.97-12.58,4.24-25.13,8.58-37.7,12.87-3.67,1.25-7.37,2.42-11.03,3.72-1.48,.52-2,.15-1.83-1.39,.44-3.99,.89-7.99,1.27-11.99,.39-4.08,.69-8.17,1.08-12.25,.57-5.92,1.16-11.84,1.78-17.76,.18-1.69-.08-3.41,.49-5.09,.3-.87,.73-1.12,1.51-1.02,6.21,.74,12.42,1.51,18.64,2.21,4.84,.55,9.69,.97,14.54,1.5,5.14,.56,10.28,1.22,15.43,1.78,5,.54,10.01,.96,15.01,1.5,4.92,.53,9.82,1.17,14.73,1.73,4.76,.54,9.53,1.02,14.3,1.53,4.49,.48,8.98,.96,13.62,1.46Z"/><path class="cls-1" d="M323.13,138.98c-.26-10.56,3.72-18.82,9.43-26.43,2.65-3.54,2.78-3.62,6.52-1.31,7.25,4.5,14.46,9.05,21.87,13.29,9.06,5.18,18.42,9.67,28.13,13.44,1.48,.58,1.84,.92,.84,2.36-4.06,5.88-6.91,12.29-7.99,19.41-.22,1.41-.83,2.3-2.4,2.64-13.61,2.89-27.21,5.83-40.8,8.8-1.59,.35-2.33-.77-3.06-1.68-4.02-5.05-7.64-10.34-9.82-16.51-1.69-4.78-3.13-9.59-2.72-14.01Z"/><path class="cls-1" d="M421.76,237.22c-6.31-1.88-12.63-3.71-18.93-5.65-11.59-3.57-22.87-7.92-33.69-13.44-7.94-4.05-15.13-9.13-21.61-15.23-4.41-4.14-8.8-8.3-13.19-12.46,10.8-2.34,21.59-4.69,32.39-7.01,4.61-.99,9.24-1.86,13.83-2.91,1.34-.31,1.67-.02,2,1.3,2.09,8.35,6,15.75,11.82,22.12,7.34,8.03,16.27,13.32,26.9,15.68,1.27,.28,2.14,.64,1.91,2.24-.63,4.45-.92,8.92-.93,13.41,0,.68,.18,1.42-.5,1.94Z"/><path class="cls-1" d="M199.75,171.75c.43-7.58,.88-15.16,1.27-22.75,.23-4.42,.49-8.84,.49-13.27,0-2.66,.55-5.25,.52-7.89-.01-1.17,.84-1.98,1.4-2.9,2.18-3.58,4.38-7.15,6.57-10.73,3,1.53,5.09,4.2,7.74,6.18,1.79,1.34,3.47,2.84,5.16,4.31,1.34,1.17,2.63,2.36,3.46,4.03,3.8,7.64,7.68,15.25,12.19,22.5,1.23,1.97,.98,2.86-1.22,3.85-11.61,5.2-23.13,10.58-34.7,15.86-.9,.41-1.92,.55-2.89,.82Z"/><path class="cls-1" d="M448.44,119.48c10.4,1.04,20.79,2.11,31.19,3.11,7.25,.7,14.51,1.25,21.76,1.95,7.17,.69,14.32,1.52,21.48,2.23,5.47,.54,10.96,.97,16.44,1.5,5.7,.55,11.4,1.19,17.1,1.75,5.4,.53,10.8,.99,16.2,1.51,6.01,.58,12.02,1.21,18.03,1.78,5.55,.53,11.12,.97,16.67,1.51,5.63,.54,11.24,1.18,16.87,1.74,5.4,.53,10.8,1,16.2,1.52,6.01,.58,12.02,1.21,18.03,1.78,5.48,.52,10.96,1,16.44,1.5,5.4,.49,10.8,.99,16.2,1.5,.2,.02,.38,.25,.57,.38-1.11,.88-2.43,.52-3.6,.4-7.38-.77-14.79-1.28-22.19-1.85-8.24-.64-16.46-1.56-24.7-2.27-4.94-.42-9.89-.58-14.83-.99-6.39-.53-12.77-1.25-19.15-1.8-4.63-.4-9.27-.61-13.89-1-6.7-.56-13.39-1.21-20.09-1.79-4.24-.37-8.49-.65-12.72-1-7.01-.59-14.01-1.23-21.02-1.81-4.47-.37-8.95-.63-13.43-1-6.85-.57-13.7-1.21-20.56-1.79-4.32-.36-8.64-.65-12.96-1.01-6.93-.58-13.85-1.27-20.79-1.78-4.17-.31-8.47,0-12.45-1.15-3.75-1.08-7.47-2.64-10.78-4.9Z"/><path class="cls-1" d="M288.06,51.55c1.79-3.75,2.95-4.12,6.18-1.58,9.69,7.62,19.34,15.32,28.99,22.99,10.27,8.15,20.55,16.28,30.78,24.49,2.23,1.79,4.7,3.3,6.55,5.54-3.07-.62-5.33-2.76-7.85-4.34-17.56-11-34.25-23.27-50.91-35.57-4.17-3.08-8.25-6.3-12.35-9.48-.66-.51-1.39-1.05-1.4-2.04Z"/><path class="cls-1" d="M478.01,144.12c12.11,1.01,23.85,1.99,35.59,2.97,.03,.16,.06,.33,.09,.49-1.84,.6-3.67,1.22-5.51,1.81-7.76,2.49-15.52,4.95-23.26,7.48-1.27,.41-2.06,.43-2.43-1.07-.95-3.93-2.69-7.57-4.49-11.67Z"/><path class="cls-1" d="M692.53,143.26c1.41,.11,2.89-.45,4.21,.45-1.47,.45-2.97,1.18-4.21-.45Z"/><path class="cls-1" d="M698.61,143.75c.95,.04,1.97-.39,2.81,.42-1.03,.5-2.08,1.07-2.81-.42Z"/><path class="cls-1" d="M704.68,144.27c.53-.11,1.05-.17,1.42,.36-.68,.7-1.15,.56-1.42-.36Z"/><path class="cls-1" d="M710.3,145.07c.33-.43,.64-.41,.94,.04-.33,.48-.64,.44-.94-.04Z"/><path class="cls-4" d="M319.87,178.76c-.16-.16-.32-.32-.48-.48,.16,.16,.32,.32,.48,.48Z"/><path class="cls-1" d="M541.96,664.06c.12-.56,.24-1.12,.94-.45-.2,.39-.54,.48-.94,.45Z"/></g><rect class="cls-2" x="50.55" y="74.51" width="98.45" height="26.8"/><text class="cls-8" transform="translate(58.48 95.44)"><tspan x="0" y="0">RIJKSMUSEUM</tspan></text><polygon class="cls-2" points="99.35 113.14 86.41 100.2 112.29 100.2 99.35 113.14"/><g><rect class="cls-7" x="354.33" y="215" width="86.67" height="105.09"/><path d="M388.53,250.64c-.05-.14-.08-.32-.09-.54s.08-.41,.29-.57c1.41-1.23,2.48-2.72,3.22-4.45,.74-1.73,1.04-3.55,.91-5.44-.15-2.22-.85-4.22-2.08-6-1.23-1.78-2.83-3.15-4.79-4.11-1.96-.96-4.07-1.36-6.31-1.2l-11.26,.79c-.29,.02-.53,.14-.71,.35-.19,.21-.27,.47-.25,.76l.61,8.79c.03,.36,.18,.67,.47,.93,.29,.25,.62,.37,.98,.34l3.59-.25c.4-.03,.72-.19,.95-.48,.23-.29,.34-.62,.31-.98l-.09-1.37c-.03-.36,.09-.69,.34-.98,.25-.29,.58-.45,.98-.48l4.57-.32c1.45-.1,2.71,.3,3.77,1.22,1.06,.91,1.65,2.08,1.75,3.5s-.32,2.6-1.25,3.66c-.93,1.05-2.12,1.63-3.57,1.73l-11.26,.79c-.29,.02-.53,.14-.71,.35-.19,.21-.27,.47-.25,.76l1.32,19.06c.02,.29,.14,.52,.35,.69,.21,.17,.46,.24,.75,.22l4.24-.3c.29-.02,.53-.13,.72-.32,.19-.2,.27-.44,.25-.73l-.83-12.02c-.03-.4,.07-.67,.3-.82,.23-.14,.56-.23,.99-.26l4.62-.32c.54-.04,.91-.03,1.09,.03,.19,.06,.34,.2,.47,.41l6.54,12.39c.16,.28,.35,.45,.55,.51,.2,.06,.51,.07,.9,.05l4.46-.31c.51-.04,.75-.25,.72-.65-.02-.22-.1-.45-.27-.69l-7.29-13.71Z"/><path d="M422.97,228.33h-23.82c-.18,0-.35,.07-.49,.22-.15,.15-.22,.33-.22,.55v5.09c0,.22,.07,.4,.22,.55,.14,.15,.31,.22,.49,.22h3.11c.36,0,.67,.12,.93,.36,.25,.24,.38,.54,.38,.9v29.57c0,.48,.24,.71,.71,.71h6.49c.18,0,.34-.06,.49-.19,.14-.13,.22-.3,.22-.52v-29.57c0-.33,.13-.62,.38-.88,.25-.26,.56-.38,.93-.38h10.19c.18,0,.34-.07,.49-.22,.14-.15,.22-.33,.22-.55v-5.09c0-.22-.07-.4-.22-.55-.15-.15-.31-.22-.49-.22Z"/><path d="M398.41,272.26l-5.45,.05c-.51,0-.88,.03-1.12,.08-.24,.05-.41,.17-.52,.36l-7.96,12.81-7.9-12.81c-.18-.29-.58-.44-1.2-.44h-.33s-5.61-.05-5.61-.05c-.36,0-.55,.2-.55,.6,0,.29,.07,.57,.22,.82l11.39,18.29-10.74,17.3c-.15,.18-.22,.42-.22,.71,0,.44,.22,.66,.65,.66h5.51c.76,0,1.29-.2,1.58-.6l22.57-36.36c.15-.25,.22-.53,.22-.82,0-.4-.18-.6-.55-.6Z"/><path d="M390.24,297.83c-.15-.26-.33-.38-.55-.38-.25,0-.55,.2-.9,.6-.35,.4-.82,1.09-1.42,2.05-.6,.97-.99,1.6-1.17,1.89-.26,.37-.38,.73-.38,1.1,0,.26,.11,.58,.33,.99l3.71,5.97c.25,.4,.76,.6,1.53,.6h5.51c.44,0,.65-.22,.65-.66,0-.29-.07-.53-.22-.71l-7.09-11.44Z"/><path d="M427.54,279.86c-.97-1.95-2.34-3.52-4.12-4.74-1.78-1.21-3.76-1.89-5.93-2.03l-12.02-.77c-.25-.02-.49,.07-.7,.26-.21,.19-.33,.43-.35,.72l-.32,5.03c-.02,.29,.07,.54,.25,.76,.19,.21,.41,.33,.66,.34l12.02,.77c1.38,.09,2.53,.66,3.47,1.7,.93,1.05,1.36,2.28,1.27,3.7-.09,1.38-.66,2.54-1.72,3.46-1.06,.92-2.28,1.34-3.66,1.25l-12.02-.77c-.25-.02-.49,.07-.7,.26-.21,.19-.33,.43-.35,.72l-1.21,19.07c-.02,.26,.07,.49,.26,.7,.19,.21,.41,.33,.66,.34l4.19,.27c.29,.02,.54-.06,.75-.23,.21-.17,.33-.4,.34-.69l.77-12.19c.02-.33,.11-.54,.26-.64,.15-.1,.43-.14,.83-.11l5.77,.37c2.18,.14,4.22-.28,6.14-1.25,1.92-.97,3.48-2.36,4.69-4.14,1.21-1.79,1.88-3.78,2.02-5.96,.14-2.19-.28-4.25-1.24-6.2Z"/></g><rect class="cls-2" x="480" y="259" width="55.7" height="26.79"/><text class="cls-9" transform="translate(488.51 271.6)"><tspan x="0" y="0">HEINEKEN</tspan><tspan x="-4.87" y="11.28">EXPERIENCE</tspan></text><polygon class="cls-2" points="507.55 294.26 498.29 285 516.8 285 507.55 294.26"/><polygon class="cls-7" points="399.5 335.5 384 320 415 320 399.5 335.5"/></svg>