<?xml version="1.0" encoding="UTF-8"?><svg id="Laag_1" xmlns="http://www.w3.org/2000/svg" viewBox="0 0 285.82 321.35"><defs><style>.cls-1{fill:#ac44f9;}</style></defs><rect class="cls-1" x="28.25" y="22.29" width="229.33" height="276.77" transform="translate(318.37 284.99) rotate(166.97)"/><g><path d="M60.88,54.07c36.39-8.42,72.39-16.75,108.95-25.21,1.09,4.71,2.15,9.28,3.31,14.32-36.18,8.37-72.37,16.75-108.95,25.21-1.11-4.81-2.17-9.38-3.31-14.32Z"/><path d="M188.83,157.47h-.06c5.16,22.32-11.68,38.96-6.41,61.73-6.07,1.4-11.26,2.6-17.41,4.03,15.5,16.35,30.11,31.76,45.45,47.93,6.63-21.47,12.87-41.64,19.57-63.34-6.45,1.49-11.32,2.62-17.1,3.96-5.23-22.58,11.58-39.39,6.49-61.37-.03,0-.07,.02-.1,.02-3.21-13.86-28.33-32.97-31.58-47.03,5.95-1.38,11-2.54,17.31-4.01-15.45-16.33-30.09-31.79-45.59-48.17-6.68,21.64-12.94,41.92-19.63,63.59,6.61-1.53,11.65-2.7,17.56-4.06,3.25,14.03,28.35,33.06,31.51,46.73Z"/><path d="M112.22,175.2s-.04,0-.06,.01c5.16,22.3-11.68,38.95-6.41,61.72-6.07,1.4-11.26,2.6-17.41,4.03,15.5,16.35,30.11,31.76,45.45,47.93,6.63-21.47,12.87-41.64,19.57-63.34-6.45,1.49-11.32,2.62-17.1,3.96-5.23-22.58,11.58-39.39,6.49-61.37l-.1,.02c-3.21-13.86-28.33-32.97-31.58-47.03,5.95-1.38,11-2.54,17.31-4.01-15.45-16.33-30.09-31.79-45.59-48.17-6.68,21.64-12.94,41.92-19.63,63.59,6.61-1.53,11.65-2.7,17.56-4.06,3.25,14.03,28.35,33.06,31.51,46.73Z"/></g></svg>