<?xml version="1.0" encoding="UTF-8"?><svg id="Laag_1" xmlns="http://www.w3.org/2000/svg" viewBox="0 0 161.82 181.94"><defs><style>.cls-1{fill:#ff3406;}</style></defs><rect class="cls-1" x="15.99" y="12.62" width="129.84" height="156.7" transform="translate(-18.43 20.58) rotate(-13.03)"/><g><path d="M127.35,151.32c-20.6,4.77-40.99,9.49-61.68,14.28-.62-2.67-1.22-5.25-1.88-8.11,20.49-4.74,40.97-9.48,61.68-14.28,.63,2.73,1.23,5.31,1.88,8.11Z"/><path d="M54.91,92.78h.03c-2.92-12.63,6.61-22.06,3.63-34.95,3.43-.79,6.37-1.47,9.86-2.28-8.78-9.26-17.05-17.98-25.73-27.14-3.76,12.15-7.28,23.57-11.08,35.86,3.65-.85,6.41-1.48,9.68-2.24,2.96,12.78-6.56,22.3-3.68,34.75h.06c1.82,7.83,16.04,18.65,17.88,26.62-3.37,.78-6.23,1.44-9.8,2.27,8.75,9.24,17.04,18,25.81,27.27,3.78-12.25,7.33-23.73,11.11-36-3.74,.87-6.59,1.53-9.94,2.3-1.84-7.94-16.05-18.72-17.84-26.45Z"/><path d="M98.29,82.74h.03c-2.92-12.63,6.61-22.06,3.63-34.95,3.43-.79,6.37-1.47,9.86-2.28-8.78-9.26-17.05-17.98-25.73-27.14-3.76,12.15-7.28,23.57-11.08,35.86,3.65-.85,6.41-1.48,9.68-2.24,2.96,12.78-6.56,22.3-3.68,34.75h.06c1.82,7.83,16.04,18.65,17.88,26.62-3.37,.78-6.23,1.44-9.8,2.27,8.75,9.24,17.04,18,25.81,27.27,3.78-12.25,7.33-23.73,11.11-36-3.74,.87-6.59,1.53-9.94,2.3-1.84-7.94-16.05-18.72-17.84-26.45Z"/></g></svg>