<?xml version="1.0" encoding="UTF-8"?><svg id="Laag_1" xmlns="http://www.w3.org/2000/svg" viewBox="0 0 154.09 71.2"><defs><style>.cls-1{fill:#faaa0a;}</style></defs><rect class="cls-1" width="154.09" height="71.2"/><g><path d="M36.89,40.21c-.02-.15-.02-.35,.01-.57,.03-.23,.16-.4,.41-.52,1.68-.98,3.07-2.28,4.16-3.91,1.09-1.62,1.75-3.42,1.99-5.37,.28-2.29-.05-4.47-.96-6.53-.92-2.06-2.29-3.77-4.11-5.13-1.82-1.36-3.9-2.19-6.23-2.46l-11.68-1.4c-.3-.04-.57,.04-.8,.22-.23,.18-.37,.42-.4,.72l-1.09,9.09c-.05,.38,.06,.72,.3,1.04,.25,.32,.56,.5,.94,.54l3.72,.45c.41,.05,.77-.05,1.07-.3,.3-.25,.47-.56,.51-.94l.17-1.41c.05-.38,.23-.69,.54-.94,.32-.25,.68-.35,1.09-.3l4.74,.57c1.5,.18,2.71,.84,3.63,1.98,.91,1.14,1.28,2.44,1.11,3.91-.17,1.43-.84,2.59-1.99,3.48-1.16,.89-2.49,1.25-3.99,1.07l-11.68-1.4c-.3-.04-.57,.04-.8,.22-.23,.18-.37,.42-.4,.72l-2.36,19.7c-.04,.3,.04,.56,.22,.77,.18,.21,.43,.34,.73,.37l4.4,.53c.3,.04,.57-.03,.8-.19,.23-.16,.36-.39,.4-.7l1.49-12.42c.05-.41,.2-.67,.46-.77,.26-.1,.62-.13,1.07-.07l4.8,.58c.56,.07,.94,.15,1.11,.25,.18,.1,.31,.27,.4,.51l4.29,13.91c.11,.32,.27,.53,.47,.63,.2,.1,.5,.18,.92,.22l4.63,.55c.53,.06,.82-.11,.86-.53,.03-.23-.02-.48-.14-.76l-4.79-15.4Z"/><path d="M71.32,14.42l-24.65,3.03c-.19,.02-.35,.12-.48,.29-.13,.17-.18,.37-.16,.59l.64,5.25c.03,.23,.13,.41,.3,.54,.17,.13,.35,.19,.54,.16l3.22-.39c.38-.05,.71,.04,1,.25,.29,.21,.46,.51,.51,.88l3.74,30.47c.06,.49,.33,.7,.82,.64l6.71-.82c.19-.02,.35-.11,.48-.26,.13-.15,.19-.34,.16-.56l-3.74-30.47c-.04-.34,.05-.66,.28-.95,.23-.3,.53-.47,.91-.51l10.55-1.3c.19-.02,.35-.12,.48-.29,.13-.17,.18-.37,.16-.59l-.64-5.25c-.03-.23-.13-.4-.3-.54-.17-.13-.35-.19-.54-.16Z"/><path d="M107.34,17.8l-5.65-.66c-.53-.07-.91-.09-1.17-.06-.25,.03-.45,.13-.58,.3l-9.9,12.15-6.5-14.23c-.15-.32-.54-.53-1.18-.61l-.34-.04-5.8-.79c-.38-.05-.59,.14-.64,.55-.04,.3,0,.59,.12,.87l9.4,20.33-13.37,16.41c-.17,.17-.28,.4-.32,.7-.06,.45,.14,.71,.59,.76l5.69,.72c.79,.1,1.36-.04,1.71-.41l28.09-34.48c.18-.24,.29-.52,.33-.82,.05-.41-.11-.64-.49-.69Z"/><path d="M96.33,43.16c-.12-.28-.29-.44-.51-.47-.26-.03-.6,.13-1.01,.5-.41,.37-.99,1.01-1.73,1.93-.75,.92-1.23,1.52-1.46,1.79-.31,.34-.49,.7-.54,1.08-.03,.26,.04,.62,.21,1.06l3.06,6.63c.21,.45,.71,.72,1.5,.82l5.7,.72c.45,.06,.7-.14,.76-.59,.04-.3,0-.55-.13-.76l-5.84-12.72Z"/><path d="M136.33,22.44c-1.06-1.99-2.54-3.59-4.43-4.8-1.89-1.21-3.97-1.86-6.24-1.94l-12.55-.47c-.27,0-.51,.09-.72,.29-.22,.2-.33,.45-.34,.76l-.2,5.23c-.01,.3,.08,.56,.28,.78,.2,.22,.43,.33,.7,.34l12.55,.47c1.44,.05,2.66,.61,3.66,1.67,1,1.06,1.48,2.33,1.42,3.81-.05,1.44-.62,2.65-1.7,3.63-1.08,.98-2.34,1.45-3.78,1.39l-12.55-.47c-.27,0-.51,.09-.72,.29-.22,.2-.33,.45-.34,.76l-.75,19.82c0,.27,.08,.51,.29,.72,.2,.22,.43,.33,.7,.34l4.37,.16c.3,.01,.56-.07,.78-.26,.21-.18,.33-.42,.34-.73l.48-12.67c.01-.34,.1-.57,.25-.67,.16-.11,.44-.15,.86-.14l6.02,.23c2.27,.09,4.39-.4,6.37-1.47,1.97-1.06,3.57-2.54,4.77-4.43,1.21-1.89,1.86-3.97,1.94-6.24,.09-2.27-.4-4.4-1.47-6.4Z"/></g></svg>