<?xml version="1.0" encoding="UTF-8"?><svg id="Laag_1" xmlns="http://www.w3.org/2000/svg" viewBox="0 0 174.77 262.62"><defs><style>.cls-1{fill:#0ee10e;}</style></defs><rect class="cls-1" x="17.74" y="9.16" width="139.29" height="244.3" transform="translate(20.95 -11.75) rotate(8.73)"/><path d="M135.96,103.01c-.3,.73-.56,1.49-.91,2.2-11.2,23.09-22.41,46.18-33.61,69.27-8.22,16.95-16.49,33.88-24.59,50.89-1.02,2.15-1.19,4.72-1.68,7.12-.33,1.6-.44,3.26-.82,4.85-.1,.42-.83,.68-1.28,1.01-.03,.02-.11-.01-.16-.02-4.83-.35-5.15-.42-4.03-5.07,1.52-6.35,.28-12.47-.63-18.67-6-40.57-12-81.14-18-121.7-.15-1.01-.24-2.03-.36-3.04,2.45-.35,2.67-.14,2.77,2.11,.33,8.22,5.66,12.03,12.58,12.76,4.21,.44,7.78-2.58,9.2-7.36,.23-.79,.5-1.57,.65-2.37,.18-.99,.49-1.56,1.7-1.39,1.23,.17,1.46,.77,1.44,1.88-.13,5.58,2.63,9.74,7.82,11.89,2.22,.92,2.34,.86,2.7-1.46,2.34-15.23,4.68-30.46,7.02-45.69,1.16-7.56,2.31-15.13,3.51-22.68,1.15-7.22,5.97-11.68,12.84-11.97,8.79-.37,15.32,7.27,13.38,15.72-.08,.33-.63,.81-.94,.8-1.14-.06-2.29-.24-3.39-.52-.33-.08-.7-.62-.78-1-.14-.69-.04-1.41-.08-2.12-.32-5.61-3.39-8.18-8.97-7.52-3.47,.41-5.96,2.85-6.61,6.72-.8,4.74-1.47,9.5-2.2,14.26-2.8,18.2-5.59,36.4-8.39,54.61-.4,2.59-.31,2.68,2.36,2.42,5.44-.55,9.18-3.67,10.79-9.07,.3-1.01,.71-1.45,1.84-1.27,1.15,.18,1.31,.73,1.3,1.78-.02,1.95-.05,3.96,.35,5.85,.82,3.94,3.49,6.21,7.48,6.72,7.2,.93,12.36-2.33,14.61-9.23,.48-1.48,.89-1.59,3.08-.68Z"/></svg>